<svg xmlns="http://www.w3.org/2000/svg" xmlns:xlink="http://www.w3.org/1999/xlink" viewBox="0 0 100 100"><defs><style>.cls-1{fill:#fcf2eb;}.cls-2{isolation:isolate;}.cls-3{clip-path:url(#clip-path);}.cls-4{fill:url(#New_swatch_200);}.cls-5,.cls-7{opacity:0.42;}.cls-11,.cls-13,.cls-26,.cls-32,.cls-36,.cls-5,.cls-7,.cls-9{mix-blend-mode:multiply;}.cls-5{fill:url(#New_swatch_200-2);}.cls-6{fill:url(#New_swatch_200-3);}.cls-7{fill:url(#New_swatch_200-4);}.cls-8{fill:url(#linear-gradient);}.cls-9{fill:url(#New_swatch_200-5);}.cls-10{fill:url(#New_swatch_241);}.cls-11{opacity:0.59;fill:url(#New_swatch_241-2);}.cls-12,.cls-13{fill:url(#New_swatch_241-3);}.cls-13{opacity:0.41;}.cls-14{fill:url(#New_swatch_267);}.cls-15,.cls-22,.cls-23{opacity:0.67;}.cls-15,.cls-22,.cls-23,.cls-31,.cls-35,.cls-38,.cls-39,.cls-40,.cls-41{mix-blend-mode:screen;}.cls-15{fill:url(#New_swatch_267-2);}.cls-16{fill:url(#New_swatch_241-5);}.cls-17{fill:url(#New_swatch_21);}.cls-18{fill:#fff;}.cls-19{fill:url(#linear-gradient-2);}.cls-20{fill:url(#New_swatch_241-6);}.cls-21{fill:url(#New_swatch_267-3);}.cls-22{fill:url(#New_swatch_267-4);}.cls-23{fill:url(#New_swatch_267-5);}.cls-24{fill:url(#New_swatch_241-7);}.cls-25{fill:url(#New_swatch_241-8);}.cls-26{opacity:0.84;fill:url(#New_swatch_241-9);}.cls-27{fill:url(#New_swatch_267-6);}.cls-28{fill:url(#New_swatch_267-7);}.cls-29{fill:url(#New_swatch_267-8);}.cls-30{fill:url(#New_swatch_267-9);}.cls-31{fill:url(#linear-gradient-3);}.cls-32,.cls-36{opacity:0.68;}.cls-32{fill:url(#New_swatch_267-10);}.cls-33{fill:url(#New_swatch_269);}.cls-34{fill:url(#New_swatch_267-11);}.cls-35{fill:url(#linear-gradient-4);}.cls-36{fill:url(#New_swatch_267-12);}.cls-37{fill:url(#New_swatch_269-2);}.cls-38,.cls-39,.cls-40,.cls-41{opacity:0.73;}.cls-38{fill:url(#linear-gradient-5);}.cls-39{fill:url(#linear-gradient-6);}.cls-40{fill:url(#linear-gradient-7);}.cls-41{fill:url(#linear-gradient-8);}</style><clipPath id="clip-path"><circle class="cls-1" cx="50" cy="50" r="43.81"/></clipPath><linearGradient id="New_swatch_200" x1="25.51" y1="88.27" x2="23.51" y2="104.45" gradientUnits="userSpaceOnUse"><stop offset="0" stop-color="#6abfe9"/><stop offset="1" stop-color="#5aa5c9"/><stop offset="1" stop-color="#5aa5c9"/></linearGradient><linearGradient id="New_swatch_200-2" x1="27.03" y1="94.16" x2="25.85" y2="103.66" xlink:href="#New_swatch_200"/><linearGradient id="New_swatch_200-3" x1="72.21" y1="94.08" x2="68.48" y2="102.77" xlink:href="#New_swatch_200"/><linearGradient id="New_swatch_200-4" x1="68.94" y1="92.03" x2="67.63" y2="102.68" xlink:href="#New_swatch_200"/><linearGradient id="linear-gradient" x1="45.69" y1="83.12" x2="43.79" y2="125.62" gradientUnits="userSpaceOnUse"><stop offset="0" stop-color="#6abfe9"/><stop offset="1" stop-color="#5aa5c9"/><stop offset="1" stop-color="#5aa5c9"/></linearGradient><linearGradient id="New_swatch_200-5" x1="45.23" y1="99.17" x2="47.72" y2="77.15" xlink:href="#New_swatch_200"/><linearGradient id="New_swatch_241" x1="54.52" y1="105.19" x2="46.94" y2="77.42" gradientUnits="userSpaceOnUse"><stop offset="0" stop-color="#ffceaa"/><stop offset="1" stop-color="#f69e80"/></linearGradient><linearGradient id="New_swatch_241-2" x1="53.1" y1="99.66" x2="46.83" y2="76.73" xlink:href="#New_swatch_241"/><linearGradient id="New_swatch_241-3" x1="56.35" y1="140.32" x2="47.78" y2="152.47" gradientTransform="matrix(1, -0.02, 0.02, 1, 16.02, -92.84)" xlink:href="#New_swatch_241"/><linearGradient id="New_swatch_267" x1="52.62" y1="148.83" x2="44.73" y2="133.05" gradientTransform="matrix(1, -0.02, 0.02, 1, 16.02, -92.84)" gradientUnits="userSpaceOnUse"><stop offset="0" stop-color="#b56f02"/><stop offset="1" stop-color="#530f00"/></linearGradient><linearGradient id="New_swatch_267-2" x1="49.56" y1="137.81" x2="43.37" y2="151.63" xlink:href="#New_swatch_267"/><linearGradient id="New_swatch_241-5" x1="28.46" y1="151.78" x2="28.46" y2="214.72" gradientTransform="matrix(1, -0.02, 0.02, 1, 16.02, -92.84)" xlink:href="#New_swatch_241"/><linearGradient id="New_swatch_21" x1="-127.86" y1="624.94" x2="-137.86" y2="624.94" gradientTransform="translate(97.22 -570.76) rotate(-7.97)" gradientUnits="userSpaceOnUse"><stop offset="0" stop-color="#d0586f"/><stop offset="1" stop-color="#a14962"/></linearGradient><linearGradient id="linear-gradient-2" x1="23.03" y1="148.87" x2="23.03" y2="140.07" gradientTransform="matrix(1, -0.02, 0.02, 1, 16.02, -92.84)" xlink:href="#New_swatch_241"/><linearGradient id="New_swatch_241-6" x1="40.97" y1="149.29" x2="40.97" y2="139.36" gradientTransform="matrix(1, -0.02, 0.02, 1, 16.02, -92.84)" xlink:href="#New_swatch_241"/><linearGradient id="New_swatch_267-3" x1="11.88" y1="155.53" x2="9.44" y2="131.76" xlink:href="#New_swatch_267"/><linearGradient id="New_swatch_267-4" x1="10.43" y1="140.68" x2="6.1" y2="150.33" xlink:href="#New_swatch_267"/><linearGradient id="New_swatch_267-5" x1="10.05" y1="136.77" x2="7.98" y2="141.38" xlink:href="#New_swatch_267"/><linearGradient id="New_swatch_241-7" x1="32.09" y1="144.78" x2="34.97" y2="155.37" gradientTransform="matrix(1, -0.02, 0.02, 1, 16.02, -92.84)" xlink:href="#New_swatch_241"/><linearGradient id="New_swatch_241-8" x1="-2" y1="150.86" x2="10.93" y2="151.65" gradientTransform="matrix(1, -0.02, 0.02, 1, 16.02, -92.84)" xlink:href="#New_swatch_241"/><linearGradient id="New_swatch_241-9" x1="3.88" y1="150.25" x2="8.86" y2="150.25" gradientTransform="matrix(1, -0.02, 0.02, 1, 16.02, -92.84)" xlink:href="#New_swatch_241"/><linearGradient id="New_swatch_267-6" x1="118.25" y1="503.32" x2="114.14" y2="509.94" gradientTransform="matrix(0.96, -0.15, 0.16, 0.99, -148.91, -435.37)" xlink:href="#New_swatch_267"/><linearGradient id="New_swatch_267-7" x1="634.58" y1="-458.76" x2="631.75" y2="-452.43" gradientTransform="matrix(0.9, 0.09, -0.1, 0.99, -554.81, 440.8)" xlink:href="#New_swatch_267"/><linearGradient id="New_swatch_267-8" x1="19.11" y1="410.99" x2="7.88" y2="441.51" gradientTransform="translate(1.68 -387.16) rotate(-4.07)" xlink:href="#New_swatch_267"/><linearGradient id="New_swatch_267-9" x1="-2324.74" y1="-84.92" x2="-2325.1" y2="-78.62" gradientTransform="matrix(-0.98, -0.17, -0.17, 0.98, -2261.8, -268.8)" xlink:href="#New_swatch_267"/><linearGradient id="linear-gradient-3" x1="-2324.87" y1="-83.03" x2="-2324.87" y2="-80.1" gradientTransform="matrix(-0.98, -0.17, -0.17, 0.98, -2261.8, -268.8)" xlink:href="#New_swatch_267"/><linearGradient id="New_swatch_267-10" x1="-2326.3" y1="-82.97" x2="-2323.43" y2="-82.97" gradientTransform="matrix(-0.98, -0.17, -0.17, 0.98, -2261.8, -268.8)" xlink:href="#New_swatch_267"/><linearGradient id="New_swatch_269" x1="17.57" y1="145.68" x2="27.51" y2="145.68" gradientTransform="matrix(1, -0.02, 0.02, 1, 16.02, -92.84)" gradientUnits="userSpaceOnUse"><stop offset="0" stop-color="#371a00"/><stop offset="1" stop-color="#643700"/></linearGradient><linearGradient id="New_swatch_267-11" x1="-2341.92" y1="-87.74" x2="-2342.28" y2="-81.44" gradientTransform="matrix(-0.98, -0.17, -0.17, 0.98, -2261.8, -268.8)" xlink:href="#New_swatch_267"/><linearGradient id="linear-gradient-4" x1="-2342.05" y1="-85.85" x2="-2342.05" y2="-82.92" gradientTransform="matrix(-0.98, -0.17, -0.17, 0.98, -2261.8, -268.8)" xlink:href="#New_swatch_267"/><linearGradient id="New_swatch_267-12" x1="-2343.49" y1="-85.79" x2="-2340.62" y2="-85.79" gradientTransform="matrix(-0.98, -0.17, -0.17, 0.98, -2261.8, -268.8)" xlink:href="#New_swatch_267"/><linearGradient id="New_swatch_269-2" x1="37.21" y1="146.19" x2="45.75" y2="146.19" xlink:href="#New_swatch_269"/><linearGradient id="linear-gradient-5" x1="21.43" y1="133.34" x2="10.38" y2="116.03" gradientTransform="matrix(1, -0.02, 0.02, 1, 16.02, -92.84)" gradientUnits="userSpaceOnUse"><stop offset="0" stop-color="#b56f02"/><stop offset="0.33" stop-color="#8f4901" stop-opacity="0.64"/><stop offset="0.65" stop-color="#6e2a01" stop-opacity="0.33"/><stop offset="0.88" stop-color="#5b1600" stop-opacity="0.14"/><stop offset="1" stop-color="#530f00" stop-opacity="0.07"/></linearGradient><linearGradient id="linear-gradient-6" x1="30.94" y1="135.24" x2="17.18" y2="107.13" gradientTransform="matrix(1, -0.02, 0.02, 1, 16.02, -92.84)" gradientUnits="userSpaceOnUse"><stop offset="0" stop-color="#b56f02"/><stop offset="1" stop-color="#530f00" stop-opacity="0.2"/></linearGradient><linearGradient id="linear-gradient-7" x1="25.41" y1="432.47" x2="17.89" y2="403.74" gradientTransform="translate(1.68 -387.16) rotate(-4.07)" gradientUnits="userSpaceOnUse"><stop offset="0" stop-color="#b56f02"/><stop offset="1" stop-color="#530f00" stop-opacity="0.16"/></linearGradient><linearGradient id="linear-gradient-8" x1="45.14" y1="130.45" x2="41.42" y2="105.31" gradientTransform="matrix(1, -0.02, 0.02, 1, 16.02, -92.84)" gradientUnits="userSpaceOnUse"><stop offset="0" stop-color="#b56f02"/><stop offset="1" stop-color="#530f00" stop-opacity="0.07"/></linearGradient></defs><title>Artboard 1icon 1</title><g class="cls-2"><g id="Layer_1" data-name="Layer 1"><circle class="cls-1" cx="50" cy="50" r="43.81"/><g class="cls-3"><path class="cls-4" d="M36.29,101.37l-1.16.33H11.45A62.33,62.33,0,0,1,26.94,86.2l.21-.15c-.45,2.74-.53,5.28,1.08,6.84l1.7,1.66A88.5,88.5,0,0,1,36.29,101.37Z"/><path class="cls-5" d="M36.29,101.37l-1.16.33H16a59.33,59.33,0,0,0,9.49-6.36c.95-.79,1.88-1.61,2.79-2.45l1.7,1.66A88.5,88.5,0,0,1,36.29,101.37Z"/><path class="cls-6" d="M77,101.7H66.36c0-.39,0-.79,0-1.19,0-.58,0-1.17,0-1.77V97.48c0-.24,0-.48,0-.72,0-1,0-1.93,0-2.91,0-.48,0-1,0-1.46s0-.76,0-1.14,0-.76,0-1.15,0-.63,0-.95l.38.33a64.89,64.89,0,0,1,9.44,10.16C76.4,100.32,76.7,101,77,101.7Z"/><path class="cls-7" d="M66.36,101.7c0-.39,0-.79,0-1.19,0-.58,0-1.17,0-1.77V97.48c0-.24,0-.48,0-.72,0-1,0-1.93,0-2.91,0-.48,0-1,0-1.46s0-.76,0-1.14,0-.76,0-1.15l.55,1.27h0Q69,96.45,70.66,101.7Z"/><path class="cls-8" d="M67.67,101.7l-46.07,10c.08-.55,1.74-6.64,2.64-10,.31-1.19.53-2,.56-2.25l.63-4.11c.53-3.32.94-5.87,1.51-9.14l.21-.15q2.51-1.72,5.17-3.21a40.79,40.79,0,0,1,4.36-2.12A23.44,23.44,0,0,1,42,79.19c3.07.26,7,.69,10.81,1.39A35.72,35.72,0,0,1,57.7,83c.9.52,1.79,1.08,2.65,1.66a67.57,67.57,0,0,1,5.91,4.49l.38.33.18,1.89h0C67.14,94.77,67.42,98.22,67.67,101.7Z"/><path class="cls-9" d="M57.7,83a14.56,14.56,0,0,1-3.25,6.49,10.44,10.44,0,0,1-12.21.94,10.56,10.56,0,0,1-4.64-6,24.49,24.49,0,0,1-.92-3.71A23.44,23.44,0,0,1,42,79.19c3.07.26,7,.69,10.81,1.39A35.72,35.72,0,0,1,57.7,83Z"/><path class="cls-10" d="M55.13,76.85c-.1,1.34-.1,3-.29,4.68A8.21,8.21,0,0,1,53,86.45c-2,2-5.35,2.32-8,1.25a8.23,8.23,0,0,1-4.89-4.91,7.81,7.81,0,0,1-.42-2.05c-.2-2.22.07-4.84,0-5.43C47.37,75.78,55.13,76.62,55.13,76.85Z"/><path class="cls-11" d="M55.13,76.85c-.1,1.34-.1,3-.29,4.68a5.8,5.8,0,0,1-1.41,2.12c-2.23,2-5.88,2.37-8.76,1.31a8.57,8.57,0,0,1-5-4.22c-.2-2.22.07-4.84,0-5.43C47.37,75.78,55.13,76.62,55.13,76.85Z"/><path class="cls-12" d="M66.27,54.59a7.56,7.56,0,0,1,1.64-3.74c1-1,2.79-1.26,3.68-.21,1.08,1.27.3,5.85-1,8.63a8.1,8.1,0,0,1-4,4.14C66.82,60.66,65.5,57.87,66.27,54.59Z"/><path class="cls-13" d="M66.27,54.59a7.56,7.56,0,0,1,1.64-3.74c1-1,2.79-1.26,3.68-.21,1.08,1.27.3,5.85-1,8.63a8.1,8.1,0,0,1-4,4.14C66.82,60.66,65.5,57.87,66.27,54.59Z"/><path class="cls-14" d="M69.89,44.6c0,.47,0,.93,0,1.39,0,.31,0,.62,0,.92s0,.42,0,.62c-.33,4.51-2.08,7.47-2,12.52,0,.2,0,.41,0,.63,0-.2-.09-.4-.12-.59-.91-4.48-.5-8.79-1.38-13l-.08-.38c-.13-.6-.26-1.2-.38-1.81-.44-2.09-.88-4.22-1.33-6.44a5.16,5.16,0,0,0-.88-2.31,13.14,13.14,0,0,1,3.83-2.32C69.38,37,69.92,40.83,69.89,44.6Z"/><path class="cls-15" d="M66.19,46.73l-2.71.58c.93-.08,1.71.27,2.64.21,1.18-.08,2.51-.26,3.7-.3,0,.21,0,.11,0,.31-.33,4.51-2.08,7.47-2,12.52l-.11,0a4.71,4.71,0,0,0,.54-.12c-1,.1-1.42-.86-2-1.7A25.81,25.81,0,0,1,63,52.83c-.76-2-1-4.22-2-7.3,1.6-.25,3.19-.45,4.8-.61,1.36-.14,2.72-.24,4.08-.32,0,.47,0,.93,0,1.39C68.63,46.23,67.41,46.47,66.19,46.73Z"/><path class="cls-16" d="M66.58,39.33c.62,13.48,2.25,17.67.22,28.85C64.85,79,52.37,85.59,39.48,78.93c-6.32-3.26-10-11.87-11.41-18.84-1.75-8.45-.61-12.6.08-19.67.36-1.33-.58-1.62.6-2.34a14.6,14.6,0,0,1,3.86-1.5,56.59,56.59,0,0,1,16.89-2.3A33.57,33.57,0,0,1,66.58,39.33Z"/><path class="cls-17" d="M49.46,69.65a10.84,10.84,0,0,1-5.41-5.49h0a21.91,21.91,0,0,0,13,.79,3.55,3.55,0,0,0-.75,1.47,4.76,4.76,0,0,1-6.34,3.43Z"/><path class="cls-18" d="M44,64.16l13,.78a7.31,7.31,0,0,1-6.4,1.41C48.39,65.87,46.41,64.64,44,64.16Z"/><path class="cls-19" d="M36.76,56.43a30.1,30.1,0,0,0-.22-5.36A7.07,7.07,0,0,1,37.85,46c.89-1,1.79.91,3.08.49,1.56-.5,3.2-1.09,4.59-.21,1.58,1,1.84,1.44,1.81,3.3,0,1.31.16,4.17-.71,6.37A14.24,14.24,0,0,1,36.76,56.43Z"/><path class="cls-20" d="M55.17,56.14c-.3-1.83.17-3.36.46-5.19a11.28,11.28,0,0,1,1.62-3.66c.38-1.31,3.17-1.29,4.54-1.2a4.26,4.26,0,0,1,2.34.91c.76.7.6,1,.57,2l-.18,5.1a2.47,2.47,0,0,1-.29,1.32,2.34,2.34,0,0,1-1.09.78A10.42,10.42,0,0,1,55.17,56.14Z"/><path class="cls-21" d="M35.45,37.15a66.55,66.55,0,0,1-1.63,8.67c-.13.45-.26.85-.39,1.21A8.57,8.57,0,0,1,32.52,49a5,5,0,0,1-1.59,1.49c-.23.18-.4,4.34-.34,7.66,0,.36-4.26-.29-4.26-.29s-1.54-4.82-3-9.75c-.14-.48-.29-1-.43-1.43s-.37-1.23-.55-1.82a58.25,58.25,0,0,1-1.84-7.12c.85-2.61,3-4.34,3.62-4S34.81,36.63,35.45,37.15Z"/><path class="cls-22" d="M23.29,48.09a54.86,54.86,0,0,1,9.23.89,5,5,0,0,1-1.59,1.49c-.23.18-.4,4.34-.34,7.66,0,.36-4.26-.29-4.26-.29S24.79,53,23.29,48.09Z"/><path class="cls-23" d="M33.82,45.82c-.13.45-.26.85-.39,1.21a72,72,0,0,0-10.57-.37c-.19-.61-.37-1.23-.55-1.82A57.68,57.68,0,0,1,33.82,45.82Z"/><path class="cls-24" d="M52.52,48a10.36,10.36,0,0,0,.4,6.25c.74,1.94,1.61,1.37,2.65,2.94,3.63,5.44-3.56,4.77-5,3C48.89,55.67,50.84,54.1,52.52,48Z"/><path class="cls-25" d="M28.17,57a10.11,10.11,0,0,0-1.6-4.13,3.47,3.47,0,0,0-3.94-1.29A3.18,3.18,0,0,0,21,53.69a6.17,6.17,0,0,0,0,2.77,11.88,11.88,0,0,0,9.17,9.06C29.26,62.27,28.92,60.31,28.17,57Z"/><path class="cls-26" d="M22.92,57.41a6,6,0,0,1,2.5-3.66A8.56,8.56,0,0,1,28,59.4a1.33,1.33,0,0,1-.36,1.17,1.08,1.08,0,0,1-1.42-.4,2,2,0,0,1,.09-2.4A4.21,4.21,0,0,0,25,56.65C24.49,56.4,23.82,56.4,22.92,57.41Z"/><path class="cls-27" d="M47.53,48.16a8,8,0,0,1-.23-2.88c-2-.09-5.71-1-7.72-.83a3.81,3.81,0,0,0-1.79.49c-1,.69-1.38,2.76-1.46,4a1.23,1.23,0,0,1,.62-1.1,3.13,3.13,0,0,1,1.24-.37C40.68,47.1,44.41,48.26,47.53,48.16Z"/><path class="cls-28" d="M55.89,48.31c.08-.67.36-2.34.45-3,6.74-.56,8-.27,8.59,1.13A11.06,11.06,0,0,1,65.35,49C63.69,46.86,57.78,48.54,55.89,48.31Z"/><path class="cls-29" d="M72.7,27.87a16.08,16.08,0,0,1-6.59,12.36l-2,.37-.33,0c-1.45.24-2.91.43-4.38.58-.83.08-1.66.15-2.5.2l-.22,0c-1.64.1-3.29.15-4.93.13l-1.24,0q-2.43,0-4.86-.27l-1.91-.2c-1.49-.18-3-.41-4.46-.68a66.9,66.9,0,0,1-12.41-3.56l2.87,1.65a27.05,27.05,0,0,1-4.38-2.32,9.73,9.73,0,0,1-2.49-2c-2.33-2.94,1-16.78,19.6-18.1a1.7,1.7,0,0,1-.64-.44,1.46,1.46,0,0,1-.35-.66c-.3-1.41,1.9-3.26,11-1,.17,0-.21-.25-.33-.39l0,0c-.53-.69-.53-1.22,1.09-1.57a16.35,16.35,0,0,1,13.65,3.14A16.07,16.07,0,0,1,72.7,27.87Z"/><path class="cls-18" d="M36.79,55.71c2.33,1.07,7.89,1.1,10.47.41a6,6,0,0,0-2.15-4.71,4.91,4.91,0,0,0-5.22-.58C38.29,51.7,37.51,53.48,36.79,55.71Z"/><circle class="cls-30" cx="42.1" cy="53.5" r="3.01"/><path class="cls-31" d="M39.59,53.06a2.55,2.55,0,0,0,5,.89,1.5,1.5,0,0,0,0-.29l-.84-.24s0,.07,0,.1a1.76,1.76,0,0,1-3.47-.59h-.69Z"/><circle class="cls-32" cx="42.15" cy="53.19" r="1.44"/><ellipse class="cls-18" cx="44.18" cy="52.83" rx="0.72" ry="0.72" transform="translate(-15.52 87.17) rotate(-80)"/><path class="cls-33" d="M46.47,53s-4.09-5.55-8.13-.42a13.62,13.62,0,0,0-1.74,3.34c.25-2.35,1.33-7.47,6.1-7a9.3,9.3,0,0,1,3.63,1.55Z"/><path class="cls-18" d="M55.11,56.21a16.15,16.15,0,0,0,9.69-.58A7.35,7.35,0,0,0,63.38,52a4.5,4.5,0,0,0-3.58-1.73,4.72,4.72,0,0,0-3.16,1.61C55.83,52.71,55.3,53.78,55.11,56.21Z"/><circle class="cls-34" cx="59.51" cy="53.71" r="3.01"/><path class="cls-35" d="M57,53.27a2.55,2.55,0,1,0,5,.88,2.89,2.89,0,0,0,0-.29c-.28-.09-.56-.17-.85-.24,0,0,0,.07,0,.11a1.77,1.77,0,0,1-3.48-.6H57Z"/><circle class="cls-36" cx="59.57" cy="53.39" r="1.44"/><ellipse class="cls-18" cx="61.6" cy="53.04" rx="0.72" ry="0.72" transform="translate(-1.33 104.49) rotate(-80)"/><path class="cls-37" d="M56.17,52.42s3.46-3.85,6.87-.55a5.54,5.54,0,0,1,1.68,3.94c.28-2.66-1.14-7.14-5.21-6.7a5.3,5.3,0,0,0-3,1.09Z"/><path class="cls-38" d="M43.71,41.09c-1.5-.18-3-.41-4.46-.68a6,6,0,0,0,.84-5.76,7.63,7.63,0,0,0-4.27-3.6,26.79,26.79,0,0,0-11.31-1.54l-.19-.39c10.89-1,18.32,2.2,19.71,3.91C46.48,36,43.88,40.79,43.71,41.09Z"/><path class="cls-39" d="M50.48,41.57c-1.62,0-3.24-.13-4.86-.28a10.41,10.41,0,0,0,2.25-3c1.55-3.21,1.56-5.54.37-7.85-3.61-7-14.49-10.14-18-10.57l-.08-.05c6.24.61,19.62,4.68,22.31,11.65C53.83,34.86,50.73,41.14,50.48,41.57Z"/><path class="cls-40" d="M61.25,33.48c.07,2.7-1.77,4.82-4.6,8-1.64.1-3.29.15-4.93.13A12.9,12.9,0,0,0,55.29,35c.62-3.49-.64-7.07-2.54-10a24.86,24.86,0,0,0-11-9.36,1.46,1.46,0,0,1-.35-.66A26.38,26.38,0,0,1,51.65,20C55.71,23.42,61.13,28.21,61.25,33.48Z"/><path class="cls-41" d="M66.73,37.24a15.4,15.4,0,0,1-2.65,3.36c-1.56.26-5.63.68-7.21.83,1-.92,4.34-2.13,5.11-3.23,2.65-3.79,4.55-8.65,3.07-13-1.81-5.38-9-9.46-12.55-11.21-.13-.14-.25-.28-.35-.41a81.18,81.18,0,0,1,8.8,3.9c2.78,1.45,7.36,4.28,8.55,7.84C70.74,29,68.7,33.86,66.73,37.24Z"/></g></g></g></svg>