<svg width="120" height="121" viewBox="0 0 120 121" fill="none" xmlns="http://www.w3.org/2000/svg" >
<path fill-rule="evenodd" clip-rule="evenodd" d="M48.923 34.9533H62.0544V89.8032H48.923V34.9533Z" fill="white"/>
<path fill-rule="evenodd" clip-rule="evenodd" d="M78.4487 64.5211V89.8033H94.7221V59.2969L90.1349 55.9227L78.4487 64.5211Z" fill="white"/>
<path fill-rule="evenodd" clip-rule="evenodd" d="M104.562 63.8873V89.8063H118.301V46.6392H97.4598V58.0293L103.992 62.8371C104.336 63.0725 104.562 63.4558 104.562 63.8873Z" fill="white"/>
<path fill-rule="evenodd" clip-rule="evenodd" d="M16.4811 64.5814H25.3755V89.8032H16.4811V64.5814Z" fill="white"/>
<path fill-rule="evenodd" clip-rule="evenodd" d="M35.486 43.9592V89.8032H39.8599V47.1764L35.486 43.9592Z" fill="white"/>
<mask id="mask0_40_420" style="mask-type:luminance" maskUnits="userSpaceOnUse" x="0" y="0" width="120" height="92">
<path d="M0.169556 0.955078H119.966V91.3515H0.169556V0.955078Z" fill="white"/>
</mask>
<g mask="url(#mask0_40_420)">
<path fill-rule="evenodd" clip-rule="evenodd" d="M31.6436 88.759V40.8989L27.0659 37.5277L15.3797 46.1291V60.9417H25.6397C26.3942 60.9417 27.0086 61.5212 27.0086 62.2364V88.756H31.6436V88.759ZM27.0086 91.3515H0.195007L0.220474 89.9723V88.756H0.239575L0.691614 62.2364C0.691614 61.5212 1.306 60.9417 2.06046 60.9417H12.6388V45.4954C12.6388 45.0608 12.8648 44.6775 13.2086 44.4421L26.2064 34.8809C26.2828 34.8205 26.3687 34.7662 26.461 34.727V34.724L26.4897 34.7119L26.5151 34.7028C26.6775 34.6334 26.8494 34.5972 27.0213 34.5942H27.1072C27.2791 34.5972 27.4511 34.6334 27.6134 34.7028L27.6389 34.7119L27.6675 34.724L27.6707 34.727C27.7598 34.7662 27.8458 34.8205 27.9254 34.8809L31.6436 37.6152V2.25284C31.6436 1.53454 32.2579 0.955078 33.0124 0.955078C33.3721 0.955078 33.6968 1.08485 33.9419 1.29914L53.2523 15.1972C53.6438 15.4266 53.9049 15.834 53.9049 16.3018V29.2643L51.1672 29.2734V16.9386L34.3813 4.85741V39.6313L40.9231 44.4421C41.2669 44.6775 41.4929 45.0608 41.4929 45.4954V88.756H44.5935L45.0806 32.6113C45.0806 31.893 45.6918 31.3136 46.4494 31.3136H60.9497V11.6027C60.9497 10.8875 61.5641 10.305 62.3185 10.305C62.6783 10.305 63.003 10.4378 63.2481 10.649L82.5584 24.5501C82.95 24.7795 83.211 25.1869 83.211 25.6547V51.7155L80.4733 53.8523V26.2885L63.6906 14.2103V31.3136H70.0255C70.7831 31.3136 71.3975 31.8961 71.3975 32.6113V88.756H74.6064V62.84C74.6064 62.4055 74.8292 62.0222 75.1762 61.7868L88.1707 52.2256C88.2503 52.1622 88.3363 52.1109 88.4254 52.0687H88.4286L88.454 52.0566H88.4572L88.4795 52.0445C88.645 51.9781 88.8169 51.9419 88.9888 51.9389H88.992L89.0175 51.9359H89.0461L89.0652 51.9389H89.0716C89.2435 51.9419 89.4186 51.9781 89.581 52.0445L89.6032 52.0566H89.6064L89.6319 52.0687H89.6351C89.7274 52.1109 89.8102 52.1622 89.8897 52.2256L93.6175 54.966V44.2912C93.6175 43.5759 94.2287 42.9964 94.9863 42.9964H118.566C119.32 42.9964 119.934 43.5759 119.934 44.2912V88.756H119.938V91.3485H27.0117L27.0086 91.3515ZM24.2709 88.759V63.5342H15.3797V88.759H24.2709ZM12.6388 88.759V63.5342H3.42931V88.759H12.6388ZM38.7552 88.759V46.1291L34.3813 42.9119V88.759H38.7552ZM117.197 88.759H103.457V62.84C103.457 62.4085 103.231 62.0222 102.887 61.7868L96.3552 56.982V45.5889H117.197V88.759ZM100.72 88.759H96.3552V60.2657L100.72 63.4738V88.759ZM93.6175 88.759H77.3441V63.4738L89.0302 54.8754L93.6175 58.2496V88.759ZM68.6566 88.759H63.6906V33.9091H68.6566V88.759ZM60.9497 88.759H47.8183V33.9091H60.9497V88.759Z" fill="white"/>
</g>
<path d="M4.49492 110.381C2.90642 110.381 1.76041 110.007 1.05688 109.259C0.350171 108.51 0 107.309 0 105.649V104.019H3.43804V106.096C3.43804 106.917 3.71818 107.327 4.27845 107.327C4.58406 107.327 4.79416 107.243 4.91513 107.074C5.04246 106.899 5.10613 106.603 5.10613 106.192C5.10613 105.646 5.0361 105.196 4.9024 104.84C4.76551 104.487 4.59042 104.194 4.38032 103.959C4.17659 103.718 3.80095 103.349 3.25977 102.848L1.74449 101.412C0.579374 100.334 0 99.1392 0 97.8264C0 96.4109 0.337437 95.3335 1.01868 94.591C1.70629 93.8516 2.70587 93.4804 4.02378 93.4804C5.60274 93.4804 6.73602 93.8788 7.42363 94.6756C8.1176 95.4663 8.46777 96.7007 8.46777 98.3817H4.9024L4.88966 97.2469C4.88966 97.0296 4.81963 96.8576 4.68593 96.7278C4.55859 96.6011 4.38032 96.5347 4.15112 96.5347C3.87735 96.5347 3.67361 96.6071 3.53991 96.752C3.40303 96.8908 3.33618 97.0779 3.33618 97.3194C3.33618 97.8596 3.66088 98.4179 4.31665 98.9974L6.35401 100.857C6.82834 101.291 7.21989 101.708 7.52549 102.1C7.83747 102.495 8.08895 102.963 8.27677 103.5C8.47096 104.031 8.56964 104.665 8.56964 105.396C8.56964 107.031 8.2513 108.269 7.61463 109.114C6.98432 109.959 5.94654 110.381 4.49492 110.381Z" fill="white"/>
<path d="M12.1157 110.224L13.8093 93.6373H19.7304L21.4112 110.224H18.0877L17.8458 107.544H15.7193L15.5156 110.224H12.1157ZM15.9867 104.889H17.5784L16.8016 96.4501H16.6361L15.9867 104.889Z" fill="white"/>
<path d="M25.1532 110.224V93.6373H28.5403V110.224H25.1532Z" fill="white"/>
<path d="M32.7951 93.6373H37.6211C38.869 93.6373 39.8017 93.9693 40.4225 94.6272C41.0496 95.2791 41.3711 96.251 41.3902 97.5366L41.4284 105.299C41.4443 106.935 41.1483 108.166 40.5371 108.993C39.9259 109.814 38.9104 110.224 37.4938 110.224H32.7951V93.6373ZM36.9335 107.291C37.5702 107.291 37.8885 106.995 37.8885 106.398V97.8384C37.8885 97.4702 37.8535 97.1926 37.7866 97.0055C37.7261 96.8214 37.6147 96.6976 37.4556 96.6312C37.2932 96.5678 37.0417 96.5347 36.7043 96.5347H36.3223V107.291H36.9335Z" fill="white"/>
<path d="M57.4856 110.381C56.0658 110.381 54.993 109.977 54.264 109.162C53.5318 108.341 53.1689 107.191 53.1689 105.71V97.8022C53.1689 96.3777 53.5318 95.3033 54.264 94.579C54.993 93.8486 56.0658 93.4804 57.4856 93.4804C58.8927 93.4804 59.9623 93.8486 60.6944 94.579C61.433 95.3033 61.8023 96.3777 61.8023 97.8022V105.71C61.8023 107.2 61.433 108.35 60.6944 109.162C59.9623 109.977 58.8927 110.381 57.4856 110.381ZM57.4856 107.327C57.7976 107.327 58.0077 107.2 58.1095 106.941C58.2178 106.684 58.2751 106.322 58.2751 105.854V97.7419C58.2751 97.3888 58.2241 97.099 58.1223 96.8727C58.0204 96.6494 57.8103 96.5347 57.4983 96.5347C56.919 96.5347 56.6325 96.9542 56.6325 97.7902V105.879C56.6325 106.355 56.6898 106.718 56.8107 106.965C56.9285 107.206 57.1545 107.327 57.4856 107.327Z" fill="white"/>
<path d="M66.0613 93.6373H70.8109C72.0842 93.6373 73.0074 93.9361 73.5868 94.5307C74.163 95.1192 74.4527 96.0819 74.4527 97.4159V98.1523C74.4527 99.7398 73.8542 100.684 72.6572 100.989C73.3958 101.176 73.9115 101.599 74.2107 102.257C74.5068 102.909 74.6564 103.775 74.6564 104.852C74.6564 106.615 74.3762 107.952 73.816 108.86C73.2621 109.772 72.2625 110.224 70.8109 110.224H66.0613V93.6373ZM70.1997 99.8666C70.4957 99.8666 70.6963 99.764 70.7981 99.5527C70.9064 99.3444 70.9637 99.0457 70.9637 98.6594V96.9934C70.9637 96.4562 70.7122 96.1846 70.2124 96.1846H69.4866V99.8666H70.1997ZM69.8304 107.303C70.7377 107.303 71.1929 106.893 71.1929 106.072V104.007C71.1929 103.5 71.1101 103.12 70.9509 102.86C70.7981 102.604 70.5244 102.474 70.136 102.474H69.4866V107.291L69.8304 107.303Z" fill="white"/>
<path d="M78.1998 110.224L79.8934 93.6373H85.8145L87.4953 110.224H84.1718L83.9299 107.544H81.8034L81.5997 110.224H78.1998ZM82.0708 104.889H83.6625L82.8858 96.4501H82.7202L82.0708 104.889Z" fill="white"/>
<path d="M91.4029 93.6373H96.2289C97.4768 93.6373 98.4095 93.9693 99.0303 94.6272C99.6574 95.2791 99.9789 96.251 99.998 97.5366L100.036 105.299C100.052 106.935 99.7561 108.166 99.1449 108.993C98.5336 109.814 97.5182 110.224 96.1016 110.224H91.4029V93.6373ZM95.5413 107.291C96.178 107.291 96.4963 106.995 96.4963 106.398V97.8384C96.4963 97.4702 96.4613 97.1926 96.3944 97.0055C96.3339 96.8214 96.2225 96.6976 96.0634 96.6312C95.901 96.5678 95.6495 96.5347 95.3121 96.5347H94.9301V107.291H95.5413Z" fill="white"/>
<path d="M104.132 110.224V93.6373H107.519V110.224H104.132Z" fill="white"/>
<path d="M115.925 110.381C114.337 110.381 113.191 110.007 112.487 109.259C111.781 108.51 111.43 107.309 111.43 105.649V104.019H114.868V106.096C114.868 106.917 115.149 107.327 115.709 107.327C116.014 107.327 116.225 107.243 116.345 107.074C116.473 106.899 116.536 106.603 116.536 106.192C116.536 105.646 116.466 105.196 116.333 104.84C116.196 104.487 116.021 104.194 115.811 103.959C115.607 103.718 115.231 103.349 114.69 102.848L113.175 101.412C112.01 100.334 111.43 99.1392 111.43 97.8264C111.43 96.4109 111.768 95.3335 112.449 94.591C113.137 93.8516 114.136 93.4804 115.454 93.4804C117.033 93.4804 118.166 93.8788 118.854 94.6756C119.548 95.4663 119.898 96.7007 119.898 98.3817H116.333L116.32 97.2469C116.32 97.0296 116.25 96.8576 116.116 96.7278C115.989 96.6011 115.811 96.5347 115.581 96.5347C115.308 96.5347 115.104 96.6071 114.97 96.752C114.833 96.8908 114.767 97.0779 114.767 97.3194C114.767 97.8596 115.091 98.4179 115.747 98.9974L117.784 100.857C118.259 101.291 118.65 101.708 118.956 102.1C119.268 102.495 119.519 102.963 119.707 103.5C119.901 104.031 120 104.665 120 105.396C120 107.031 119.682 108.269 119.045 109.114C118.415 109.959 117.377 110.381 115.925 110.381Z" fill="white"/>
<path d="M3.34851 120.859V115.897H4.51999V119.917H6.59555V120.859H3.34851Z" fill="white"/>
<path d="M16.0663 120.955C15.7098 120.955 15.3819 120.895 15.0859 120.774C14.7962 120.653 14.5447 120.481 14.3346 120.255C14.1309 120.032 13.9685 119.76 13.8507 119.446C13.7393 119.126 13.6852 118.758 13.6852 118.348C13.6852 117.946 13.7393 117.587 13.8507 117.273C13.9685 116.953 14.1309 116.682 14.3346 116.464C14.5447 116.247 14.7962 116.084 15.0859 115.969C15.3819 115.858 15.7098 115.8 16.0663 115.8C16.4133 115.8 16.7317 115.858 17.0214 115.969C17.3174 116.084 17.5689 116.253 17.7726 116.476C17.9827 116.694 18.1483 116.965 18.2692 117.285C18.387 117.599 18.4475 117.955 18.4475 118.348C18.4475 118.758 18.387 119.126 18.2692 119.446C18.1483 119.76 17.9827 120.032 17.7726 120.255C17.5689 120.481 17.3174 120.653 17.0214 120.774C16.7317 120.895 16.4133 120.955 16.0663 120.955ZM16.0663 119.977C16.4229 119.977 16.703 119.832 16.9068 119.543C17.1169 119.253 17.2251 118.855 17.2251 118.348C17.2251 117.859 17.1169 117.472 16.9068 117.189C16.703 116.908 16.4229 116.766 16.0663 116.766C15.7098 116.766 15.4233 116.908 15.2132 117.189C14.9999 117.472 14.8949 117.859 14.8949 118.348C14.8949 118.855 14.9999 119.253 15.2132 119.543C15.4233 119.832 15.7098 119.977 16.0663 119.977Z" fill="white"/>
<path d="M26.8831 120.859V116.838H25.4442V115.897H29.5062V116.838H28.0673V120.859H26.8831Z" fill="white"/>
<path d="M36.7609 120.859V115.897H37.9323V120.859H36.7609Z" fill="white"/>
<path d="M47.201 120.955C46.8604 120.955 46.5198 120.895 46.1823 120.774C45.8417 120.653 45.5361 120.472 45.2655 120.231L45.9404 119.47C46.125 119.615 46.3351 119.736 46.5643 119.832C46.7935 119.929 47.0164 119.977 47.2392 119.977C47.4843 119.977 47.6658 119.938 47.7867 119.857C47.9045 119.769 47.965 119.651 47.965 119.506C47.965 119.428 47.9459 119.359 47.9141 119.301C47.8791 119.247 47.8281 119.199 47.7613 119.156C47.6912 119.117 47.6116 119.078 47.5193 119.036C47.4238 118.996 47.322 118.951 47.2137 118.903L46.5261 118.637C46.3892 118.583 46.2587 118.514 46.1314 118.432C46.0104 118.354 45.9022 118.26 45.8003 118.154C45.6984 118.043 45.6157 117.913 45.5584 117.768C45.4979 117.623 45.4692 117.46 45.4692 117.273C45.4692 117.074 45.5138 116.884 45.6093 116.706C45.7016 116.522 45.829 116.365 45.9913 116.235C46.16 116.099 46.3606 115.993 46.5898 115.921C46.819 115.843 47.0673 115.8 47.3411 115.8C47.6467 115.8 47.9459 115.858 48.2451 115.969C48.5412 116.084 48.799 116.244 49.0219 116.452L48.4234 117.164C48.2515 117.038 48.0796 116.941 47.9013 116.875C47.7294 116.802 47.5448 116.766 47.3411 116.766C47.1373 116.766 46.975 116.808 46.8572 116.887C46.7362 116.968 46.6789 117.077 46.6789 117.213C46.6789 117.294 46.6948 117.364 46.7299 117.418C46.7712 117.466 46.8254 117.515 46.8954 117.563C46.9718 117.605 47.0546 117.644 47.1501 117.684C47.2519 117.717 47.357 117.756 47.4684 117.804L48.1433 118.058C48.4648 118.188 48.7163 118.36 48.8945 118.577C49.0792 118.788 49.1747 119.066 49.1747 119.41C49.1747 119.621 49.1301 119.817 49.0474 120.001C48.9614 120.189 48.8341 120.352 48.6653 120.496C48.4934 120.635 48.2865 120.747 48.0414 120.834C47.7931 120.913 47.513 120.955 47.201 120.955Z" fill="white"/>
<path d="M58.0975 120.955C57.7569 120.955 57.4162 120.895 57.0788 120.774C56.7382 120.653 56.4326 120.472 56.162 120.231L56.8369 119.47C57.0215 119.615 57.2316 119.736 57.4608 119.832C57.69 119.929 57.9128 119.977 58.1357 119.977C58.3808 119.977 58.5623 119.938 58.6832 119.857C58.801 119.769 58.8615 119.651 58.8615 119.506C58.8615 119.428 58.8424 119.359 58.8106 119.301C58.7755 119.247 58.7246 119.199 58.6578 119.156C58.5877 119.117 58.5081 119.078 58.4158 119.036C58.3203 118.996 58.2184 118.951 58.1102 118.903L57.4226 118.637C57.2857 118.583 57.1552 118.514 57.0279 118.432C56.9069 118.354 56.7987 118.26 56.6968 118.154C56.5949 118.043 56.5122 117.913 56.4549 117.768C56.3944 117.623 56.3657 117.46 56.3657 117.273C56.3657 117.074 56.4103 116.884 56.5058 116.706C56.5981 116.522 56.7254 116.365 56.8878 116.235C57.0565 116.099 57.2571 115.993 57.4863 115.921C57.7155 115.843 57.9638 115.8 58.2375 115.8C58.5432 115.8 58.8424 115.858 59.1416 115.969C59.4377 116.084 59.6955 116.244 59.9184 116.452L59.3199 117.164C59.148 117.038 58.9761 116.941 58.7978 116.875C58.6259 116.802 58.4413 116.766 58.2375 116.766C58.0338 116.766 57.8715 116.808 57.7537 116.887C57.6327 116.968 57.5754 117.077 57.5754 117.213C57.5754 117.294 57.5913 117.364 57.6263 117.418C57.6677 117.466 57.7218 117.515 57.7919 117.563C57.8683 117.605 57.951 117.644 58.0465 117.684C58.1484 117.717 58.2535 117.756 58.3649 117.804L59.0398 118.058C59.3613 118.188 59.6128 118.36 59.791 118.577C59.9757 118.788 60.0712 119.066 60.0712 119.41C60.0712 119.621 60.0266 119.817 59.9438 120.001C59.8579 120.189 59.7305 120.352 59.5618 120.496C59.3899 120.635 59.183 120.747 58.9379 120.834C58.6896 120.913 58.4094 120.955 58.0975 120.955Z" fill="white"/>
<path d="M67.4023 120.859V115.897H70.6748V116.838H68.5738V117.828H70.3565V118.77H68.5738V119.917H70.7512V120.859H67.4023Z" fill="white"/>
<path d="M78.2346 120.859V115.897H79.5206L80.3611 118.106C80.4184 118.251 80.4693 118.402 80.5139 118.553C80.5648 118.707 80.6157 118.861 80.6667 119.011H80.7049C80.7558 118.861 80.8004 118.707 80.8449 118.553C80.8959 118.402 80.9468 118.251 80.9977 118.106L81.8254 115.897H83.1115V120.859H82.0419V119.036C82.0419 118.915 82.0451 118.782 82.0546 118.637C82.061 118.486 82.0737 118.335 82.0928 118.191C82.1087 118.04 82.1246 117.889 82.1437 117.744C82.1597 117.599 82.1756 117.466 82.1947 117.346H82.1565L81.7363 118.529L80.985 120.424H80.3356L79.5843 118.529L79.1641 117.346H79.1386C79.1546 117.466 79.1705 117.599 79.1896 117.744C79.2055 117.889 79.2182 118.04 79.2278 118.191C79.2437 118.335 79.2564 118.486 79.266 118.637C79.2819 118.782 79.2914 118.915 79.2914 119.036V120.859H78.2346Z" fill="white"/>
<path d="M90.7855 120.859V115.897H94.058V116.838H91.957V117.828H93.7397V118.77H91.957V119.917H94.1344V120.859H90.7855Z" fill="white"/>
<path d="M101.618 120.859V115.897H102.827L104.19 118.36L104.712 119.458H104.738C104.712 119.193 104.68 118.9 104.648 118.577C104.613 118.248 104.597 117.937 104.597 117.647V115.897H105.718V120.859H104.508L103.133 118.384L102.624 117.297H102.598C102.624 117.572 102.652 117.871 102.687 118.191C102.719 118.504 102.738 118.806 102.738 119.096V120.859H101.618Z" fill="white"/>
<path d="M114.408 120.859V116.838H112.97V115.897H117.032V116.838H115.593V120.859H114.408Z" fill="white"/>
</svg>
