<svg width="455" height="273" viewBox="0 0 455 273" fill="none" xmlns="http://www.w3.org/2000/svg">
<mask id="mask0_42_278" style="mask-type:luminance" maskUnits="userSpaceOnUse" x="8" y="53" width="441" height="149">
<path d="M8.58141 53.5983H448.461V201.737H8.58141V53.5983Z" fill="white"/>
</mask>
<g mask="url(#mask0_42_278)">
<path d="M68.8243 149.5C65.7314 150.898 62.3292 152.429 58.8468 154.009C59.1446 154.575 59.4196 155.697 60.1069 156.239C61.0233 156.974 62.1803 157.203 61.6419 158.952C61.2409 160.302 61.2066 161.785 60.966 163.509C63.6924 158.65 66.3041 153.985 68.8243 149.5ZM198.234 103.918C195.347 104.979 192.426 105.98 189.562 107.113C187.89 107.776 186.297 109.476 184.522 106.751C185.209 104.87 185.816 102.58 186.859 100.542C188.291 97.7336 190.078 95.1054 191.67 92.3809C191.83 92.0916 191.75 91.6455 191.773 91.2718C191.83 90.3676 191.693 89.3791 191.979 88.5593C192.701 86.5099 193.617 84.5448 194.453 82.5436C194.282 82.4471 194.121 82.3507 193.961 82.2663C192.346 82.9896 190.765 83.7491 189.138 84.4243C188.634 84.6292 188.039 84.6051 187.489 84.6413C186.985 84.6654 186.32 84.4122 185.988 84.6654C184.739 85.6419 183.434 86.6184 182.471 87.8721C181.692 88.8848 180.421 89.4152 180.134 90.9825C179.986 91.754 178.955 92.3086 178.428 93.0319C177.798 93.8999 176.938 94.8041 176.812 95.7806C176.686 96.7932 177.328 97.9023 177.66 99.0597C177.397 99.3008 176.847 99.5539 176.755 99.9397C176.217 102.266 175.724 104.605 175.323 106.968C174.441 112.26 173.628 117.565 172.769 122.869C172.597 123.954 172.345 125.027 172.059 126.076C171.955 126.438 171.463 127.016 171.394 126.968C169.378 125.871 169.275 128.162 168.393 128.68C169.057 129.922 169.664 131.043 170.26 132.164C171.108 133.743 172.104 135.274 172.769 136.95C173.261 138.192 173.17 138.276 174.178 137.601C174.991 137.047 175.885 136.589 176.778 136.191C178.107 135.612 179.596 135.347 180.764 134.551C184.671 131.923 187.374 127.969 189.711 123.906C191.83 120.193 193.835 116.371 194.453 111.778C194.82 109.054 196.893 106.582 198.234 103.918ZM397.05 168.777C395.423 168.439 393.797 168.102 392.067 167.752C392.628 168.825 393.087 169.693 393.602 170.657C392.823 170.826 392.17 170.971 391.907 171.019C390.807 169.741 389.959 168.403 388.802 167.511C386.626 165.835 384.266 164.437 381.986 162.918C381.597 162.653 381.23 162.339 380.898 161.99C377.737 158.602 374.037 155.6 371.608 151.706C369.913 149.006 368.068 148.777 365.72 148.56C363.097 148.319 360.462 148.174 357.862 147.776C356.613 147.583 355.422 146.92 354.185 146.51C353.532 146.293 352.799 145.944 352.18 146.076C350.576 146.438 349.82 145.486 348.95 144.316C347.094 141.845 345.158 139.434 343.165 137.083C341.653 135.311 340.015 133.659 338.388 132.007C335.604 129.15 332.454 129.042 329.132 130.766C325.856 132.478 322.58 134.202 319.315 135.938C318.032 136.613 316.577 136.07 315.982 134.623C314.263 130.476 312.545 126.329 310.838 122.182C310.678 121.796 310.552 121.374 310.483 120.965C309.899 117.468 306.726 115.262 303.45 116.179C303.003 116.299 302.533 116.769 302.281 117.203C300.758 119.952 299.486 122.893 297.756 125.473C295.156 129.343 293.919 133.997 291.204 137.77C290.654 138.542 290.242 139.422 290.024 139.795C293.358 139.627 297.481 139.422 301.605 139.193C302.946 139.108 304.297 139.06 305.615 138.783C306.921 138.517 307.47 139.566 308.158 140.265C308.272 140.386 307.47 141.447 307.138 142.098C306.646 143.074 306.119 144.027 305.752 145.052C304.435 148.789 303.106 152.514 301.915 156.299C300.391 161.182 299.028 166.125 297.55 171.019C297.149 172.357 297.081 173.394 298.226 174.491C298.925 175.154 299.039 176.48 299.635 177.336C301.25 179.639 302.877 181.929 304.675 184.051C309.108 189.271 315.157 191.972 320.735 195.395C322.946 196.758 325.203 198.048 327.38 199.47C327.7 199.675 327.815 200.447 327.78 200.929C327.758 201.218 327.219 201.725 326.967 201.688C326.177 201.568 325.352 201.375 324.665 200.965C320.816 198.675 317.116 196.107 313.152 194.081C311.812 193.406 310.838 193.141 310.643 191.393C310.598 190.971 309.406 190.368 308.753 190.392C306.646 190.477 305.523 188.934 304.114 187.728C302.545 186.39 300.815 185.245 299.154 184.015C298.913 183.846 298.627 183.714 298.467 183.485C297.31 181.845 296.21 180.157 295.041 178.518C293.907 176.95 293.816 176.553 294.297 174.346C294.366 174.021 294.251 173.599 294.102 173.286C293.094 171.357 294.011 169.609 294.446 167.776C294.927 165.715 295.11 163.581 295.557 161.507C296.107 158.964 296.714 156.432 297.459 153.948C298.375 150.862 299.452 147.836 300.506 144.63C298.26 144.81 296.084 145.003 293.907 145.172C288.558 145.594 284.102 148.077 280.138 151.742C279.875 151.983 279.588 152.297 279.279 152.345C278.718 152.429 278.134 152.333 277.561 152.321C277.71 151.67 277.71 150.935 278.031 150.404C278.878 149.03 279.863 147.728 280.803 146.402C281.582 145.317 282.475 144.304 283.128 143.135C284.354 140.904 285.419 138.566 286.622 136.311C288.546 132.719 290.746 129.283 292.43 125.57C293.93 122.291 296.004 119.241 296.347 115.383C296.496 113.779 297.481 112.273 298.089 110.717C297.974 110.609 297.859 110.512 297.745 110.404C296.565 111.212 295.431 112.152 294.182 112.803C291.227 114.358 288.123 115.612 285.247 117.3C282.097 119.156 278.947 121.109 276.14 123.472C273.174 125.968 271.421 129.596 269.508 133.044C267.4 136.842 265.052 140.47 262.738 144.135C260.653 147.451 258.637 150.85 256.289 153.948C253.78 157.276 250.95 160.338 248.178 163.448C246.953 164.823 245.624 166.149 244.203 167.282C242.783 168.415 241.236 169.392 239.656 170.236C237.422 171.417 235.028 172.261 232.851 173.527C231.053 174.575 229.564 174.214 227.788 173.105C230.102 171.405 232.278 169.814 234.409 168.246C233.917 167.873 233.241 167.415 232.599 166.908C230.32 165.124 230.377 165.196 228.246 167.222C227.364 168.053 226.138 168.463 225.108 169.126C221.74 171.284 218.418 173.527 215.015 175.624C213.664 176.456 212.129 176.938 210.72 177.662C207.879 179.132 205.084 180.712 202.243 182.158C198.428 184.087 194.602 185.944 190.753 187.8C188.554 188.861 186.355 189.995 184.064 190.802C182.677 191.284 181.142 192.201 179.619 190.899C179.436 190.742 178.874 191.08 178.473 191.176C176.411 191.706 175.85 191.381 175.014 188.922C176.423 188.572 177.992 188.548 179.138 187.812C182.128 185.884 185.427 185.45 188.737 184.799C190.078 184.533 191.383 183.919 192.632 183.292C199.414 179.94 206.31 176.83 212.45 172.152C217.009 168.668 221.751 165.462 226.391 162.086C227.353 161.387 228.2 160.507 229.071 159.687C231.099 157.77 231.58 157.662 233.63 159.446C235.36 160.941 236.906 162.689 238.602 164.232C238.957 164.557 239.667 164.714 240.102 164.569C242.439 163.798 244.02 162.038 245.418 159.976C246.139 158.927 247.182 158.132 248.075 157.203C248.774 156.468 249.496 155.745 250.16 154.961C251.409 153.466 252.68 151.983 253.826 150.404C255.441 148.186 256.964 145.895 258.499 143.641C258.671 143.4 258.694 142.918 258.889 142.845C262.073 141.592 262.944 138.397 264.284 135.624C265.831 132.417 267.182 129.09 268.786 125.907C269.554 124.376 271.134 123.207 271.616 121.628C272.475 118.783 274.457 117.89 276.748 116.842C280.516 115.118 284.102 112.96 287.79 111.043C288.867 110.488 290.013 110.09 291.17 109.608C287.252 106.209 283.369 102.833 279.485 99.4575C279.405 99.5539 279.325 99.6624 279.245 99.7589C280.07 101.543 280.986 103.303 281.685 105.148C281.994 105.931 281.857 106.896 281.96 108.162C280.997 109.21 280.161 109.042 279.405 107.39C278.076 104.533 276.942 101.519 275.224 98.9512C272.864 95.4189 270.058 92.2121 267.389 88.933C267.034 88.5111 266.323 88.2579 265.762 88.2217C264.261 88.1253 262.749 88.1856 260.848 88.1856C261.466 89.2465 261.925 90.0301 262.383 90.8137C264.399 94.2013 266.358 97.6251 268.431 100.964C270.138 103.701 272.028 106.305 273.746 109.03C274.033 109.5 274.09 110.307 273.93 110.862C273.632 111.911 273.025 111.839 272.452 111.007C271.18 109.186 270.058 107.233 268.614 105.606C267.137 103.942 265.35 102.58 263.402 101.302C263.895 102.652 264.525 103.966 264.857 105.365C265.521 108.101 266.186 110.874 266.507 113.671C266.598 114.479 265.499 115.443 264.949 116.335C264.72 116.275 264.49 116.215 264.25 116.154C263.895 114.394 263.608 112.61 263.162 110.874C262.234 107.269 261.65 103.46 260.103 100.169C258.797 97.3839 256.369 95.1898 254.364 92.7908C252.405 90.44 250.149 88.3302 248.419 85.8106C246.918 83.6406 245.257 82.4351 242.714 82.5436C240.595 82.628 238.464 82.5556 236.082 82.5556C236.219 83.508 236.162 84.4122 236.494 85.0994C237.823 87.8962 239.106 90.7293 240.709 93.3333C242.141 95.6359 243.963 97.6492 245.635 99.7709C246.529 100.88 247.525 101.905 248.396 103.038C248.705 103.448 248.785 104.063 248.969 104.581C248.808 104.75 248.648 104.919 248.488 105.075C246.552 103.822 244.558 102.652 242.703 101.278C238.556 98.1917 236.586 93.3212 234.031 88.9692C231.82 85.2079 229.85 81.3019 227.662 77.5164C226.219 75.0209 224.168 73.5502 221.27 73.0921C217.948 72.5616 215.416 70.259 213.148 67.7515C211.865 66.341 210.663 64.8461 209.15 63.0619C207.627 65.9311 206.149 68.5351 204.843 71.2355C204.007 72.9836 203.377 74.8522 202.736 76.6967C202.174 78.3121 202.002 80.1807 201.143 81.543C199.035 84.8583 198.199 88.704 196.63 92.2362C195.53 94.7076 194.568 97.2513 193.548 99.7709C194.717 99.7709 195.966 100.084 196.996 99.7107C200.387 98.481 203.686 97.0223 206.298 94.2254C208.268 92.0916 208.486 92.176 210.548 94.4665C212.209 96.2989 213.939 98.0591 215.577 99.9156C216.081 100.47 216.447 101.193 216.768 101.905C217.833 104.34 220.182 104.726 222.141 105.726C223.332 106.341 224.649 106.751 225.726 107.535C228.246 109.355 231.064 109.898 234.02 110.151C235.028 110.223 236.024 110.597 236.998 110.91C240.744 112.14 244.49 113.394 248.236 114.672C248.946 114.901 249.622 115.238 250.297 115.515C249.782 118.18 249.679 118.168 247.216 117.758C245.486 117.468 243.699 117.589 241.97 117.324C237.319 116.6 232.679 115.781 228.04 115.009C227.696 114.961 227.341 115.045 226.299 115.106C227.559 116.709 228.464 117.987 229.506 119.132C230.652 120.398 232.542 121.037 232.427 123.339C232.416 123.581 233.057 123.822 233.344 124.135C235.005 125.956 236.849 127.643 238.224 129.693C238.842 130.597 238.396 132.261 238.602 133.538C238.877 135.214 239.243 136.866 239.679 138.505C240.354 141.061 241.122 143.593 241.844 146.124C241.66 146.293 241.477 146.45 241.282 146.607C240.618 145.944 239.862 145.353 239.289 144.593C238.292 143.267 237.365 141.857 236.471 140.434C235.154 138.325 233.962 136.13 232.599 134.069C232.061 133.249 231.225 132.622 230.446 132.019C229.781 131.489 228.819 131.26 228.315 130.609C226.299 127.993 223.63 126.377 220.766 125.256C217.467 123.978 214.489 125.401 211.923 127.583C210.892 128.463 210.525 128.644 209.746 127.33C208.83 125.763 207.386 124.521 206.516 122.93C204.992 120.121 203.732 117.155 202.358 114.25C202.277 114.081 202.117 113.876 202.151 113.743C202.667 111.814 203.217 109.898 203.377 107.8C203.24 108.137 203.125 108.499 202.93 108.801C201.957 110.271 200.949 111.718 199.986 113.189C199.757 113.526 199.608 113.924 199.459 114.31C197.821 118.481 197.753 122.942 197.283 127.342C197.077 129.271 196.275 131.139 197.271 133.068C197.352 133.225 197.157 133.623 197.008 133.84C194.992 136.613 192.85 139.313 190.96 142.182C189.677 144.147 188.863 146.462 187.615 148.463C185.667 151.586 183.491 154.551 181.509 157.65C180.386 159.398 179.47 161.29 178.405 163.075C178.221 163.376 177.74 163.605 177.385 163.629C175.255 163.822 173.112 163.943 170.982 164.075C169.172 164.196 167.339 164.196 165.552 164.473C164.819 164.581 164.074 165.184 163.501 165.751C162.448 166.776 161.554 168.005 160.5 169.042C156.502 173.057 152.207 176.794 148.518 181.11C146.078 183.967 143.146 185.799 140.225 187.8C138.3 189.114 136.364 190.429 134.554 191.911C133.076 193.117 131.255 193.623 129.617 192.707C131.347 191.297 132.95 189.898 134.657 188.656C135.768 187.849 137.097 187.415 138.174 186.583C138.987 185.956 139.491 184.895 140.236 184.148C144.99 179.313 149.858 174.624 154.498 169.669C156.571 167.451 158.209 164.75 160.008 162.243C160.512 161.531 160.787 161.423 161.829 161.495C166.434 161.797 171.005 161.314 174.819 158.011C175.037 157.806 175.22 157.517 175.484 157.396C177.099 156.637 178.221 155.528 179.241 153.864C181.246 150.573 183.812 147.68 186.057 144.545C187.935 141.941 189.734 139.265 191.441 136.528C191.876 135.829 191.922 134.804 192.025 133.924C192.22 132.381 192.311 130.838 192.495 128.716C190.639 131.875 188.989 134.479 187.534 137.203C186.16 139.771 184.98 142.46 183.697 145.076C182.196 148.174 179.401 149.874 176.973 151.971C176.114 152.707 175.209 153.394 174.201 154.19C172.929 152.936 171.68 153.695 170.363 154.829C170.031 154.178 169.779 153.683 169.676 153.49C172.631 150.935 175.816 148.909 178.05 146.052C180.226 143.255 181.429 139.602 182.781 135.998C181.807 136.854 180.902 137.854 179.825 138.517C178.451 139.373 176.95 139.988 175.472 140.651C172.929 141.809 170.191 142.616 167.854 144.123C164.613 146.209 161.462 148.584 158.679 151.284C156.571 153.334 155.128 156.118 153.306 158.518C152.23 159.94 150.523 161.061 149.939 162.665C148.999 165.269 147.029 166.8 145.46 168.753C143.443 171.26 141.404 173.756 139.32 176.203C136.33 179.723 133.237 183.147 130.293 186.703C128.277 189.151 126.593 191.911 124.485 194.25C122.675 196.251 120.533 197.939 118.414 199.567C117.612 200.181 116.455 200.302 115.447 200.555C115.241 200.603 114.737 200.29 114.737 200.121C114.714 199.82 114.909 199.422 115.138 199.217C117.303 197.3 119.594 195.492 121.679 193.467C123.053 192.128 124.164 190.501 125.356 188.97C127.933 185.63 130.545 182.327 133.031 178.915C134.989 176.227 136.708 173.358 138.667 170.67C140.454 168.222 142.538 166.004 144.291 163.521C146.33 160.615 148.117 157.493 150.076 154.515C150.683 153.587 150.752 152.309 152.424 152.044C153.318 151.899 153.936 149.789 154.658 148.548C154.853 148.21 154.876 147.643 155.128 147.511C157.82 146.076 160.535 144.738 163.227 143.328C163.639 143.111 164.154 142.665 164.223 142.255C164.658 139.397 165.128 136.528 165.3 133.647C165.38 132.441 164.739 131.188 164.143 129.97C166.503 124.931 169.893 120.121 170.271 114.129C170.627 108.523 172.941 103.134 172.288 96.8776C170.375 98.3363 169.493 99.6263 169.47 101.688C169.458 103.207 169.275 104.87 168.656 106.209C167.144 109.56 167.156 113.068 167.075 116.625C167.041 118.216 166.789 119.807 166.64 121.411C164.933 120.989 163.605 119.361 163.593 117.722C163.582 115.094 163.593 112.453 163.593 109.717C157.797 110.886 153.639 115.455 148.083 118.409C151.462 119.506 152.986 121.664 154.2 124.605C155.242 127.137 157.35 129.186 159.011 131.489C157.9 133.43 157.407 133.43 155.93 131.622C153.398 128.499 150.992 125.22 148.174 122.435C147.006 121.278 144.91 121.121 143.203 120.627C141.53 120.157 139.835 119.807 138.14 119.434C135.356 118.831 132.572 118.24 129.777 117.673C128.643 117.444 127.91 118.59 128.231 119.916C128.3 120.253 128.093 120.651 128.048 120.856C128.048 122.279 128.025 123.593 128.048 124.919C128.071 126.558 128.265 128.21 128.105 129.837C128.048 130.488 127.269 131.067 126.742 131.646C127.2 131.995 128.139 132.526 126.971 133.828C126.765 134.057 127.349 135.082 127.727 136.251C127.085 137.24 126.192 138.795 125.115 140.193C124.714 140.712 123.866 140.856 122.824 141.363C123.145 141.567 123.569 141.845 124.371 142.363C123.248 142.833 122.389 143.195 121.541 143.557C121.679 143.641 121.953 143.798 122.561 144.171C121.564 144.835 120.636 145.269 119.937 145.968C118.906 146.98 118.105 148.234 117.108 149.283C116.306 150.115 115.435 150.923 114.462 151.525C112.446 152.755 112.915 154.599 113.133 156.456C113.225 157.228 112.996 158.047 113.133 158.807C113.19 159.181 113.752 159.446 114.473 160.109C113.007 161.399 111.403 162.424 110.304 163.87C108.963 165.642 107.211 166.8 105.664 168.246C103.854 169.934 101.884 171.429 100.074 173.117C97.4165 175.6 94.839 178.18 92.2158 180.712C91.9523 180.977 91.5514 181.387 91.3223 181.315C89.604 180.808 88.4585 181.869 87.4619 182.978C86.5455 183.991 85.7322 184.497 84.2773 184.63C82.8684 184.762 81.5739 186.149 80.2222 186.981C79.7754 187.258 79.3402 187.559 78.9278 187.825C77.7822 186.571 77.9541 185.208 79.3172 184.075C82.307 181.592 85.3656 179.205 88.2408 176.589C90.4288 174.612 92.6969 172.586 94.3694 170.139C96.5688 166.92 98.287 163.328 100.063 159.807C101.3 157.372 102.365 154.829 103.327 152.273C103.889 150.766 104.118 149.126 104.633 146.968C102.709 148.632 101.3 151.188 98.9171 148.379C101.953 147.836 103.854 145.642 105.905 143.629C108.161 141.423 109.822 138.939 110.246 135.564C108.757 136.408 107.371 137.203 105.996 137.999C105.893 138.059 105.699 138.071 105.676 138.144C104.805 141.314 101.517 141.278 99.7189 143.219C98.5963 144.413 97.5081 145.666 96.2595 146.691C95.4232 147.39 94.3121 147.704 93.3269 148.198C92.4907 148.608 91.6545 149.018 90.8526 149.765C92.8 150.018 94.7588 150.199 96.6833 150.537C98.4016 150.826 99.9824 151.429 100.131 153.876C99.7419 153.852 99.3638 153.828 98.9973 153.78C98.161 153.671 97.2103 152.49 96.5573 154.105C96.5344 154.178 96.3397 154.214 96.2366 154.202C94.9192 153.997 93.4873 154.045 92.3189 153.478C90.6693 152.695 89.1343 151.983 87.2901 152.924C87.4275 153.237 87.6108 153.635 87.817 154.081C87.5306 154.141 87.3244 154.262 87.1984 154.202C83.7619 152.466 80.2909 153.478 76.8315 154.057C76.7169 154.069 76.6024 154.202 76.5107 154.178C72.5701 153.177 71.333 156.733 69.3054 158.952C67.4038 161.025 65.5825 163.195 63.5549 165.136C62.5125 166.137 62.0313 166.788 63.5893 167.728C61.1264 169.283 58.7208 170.645 56.4641 172.249C54.3335 173.768 52.3746 175.552 50.3241 177.179C49.7743 177.613 49.1672 177.975 48.5371 178.252C47.5405 178.711 46.4065 178.903 45.5244 179.518C42.9126 181.29 39.7739 180.977 37.0247 182.134C34.9742 182.99 32.855 183.641 30.7243 184.22C30.2317 184.365 29.5902 183.894 29.006 183.702C29.3611 183.195 29.6131 182.412 30.0714 182.243C34.1952 180.724 38.1014 178.578 42.5117 177.818C44.1383 177.541 45.6161 176.07 47.0709 175.022C49.0412 173.587 51.1489 172.273 52.7985 170.477C54.6427 168.463 56.0632 165.992 57.6096 163.677C57.9991 163.099 58.1709 162.327 58.3771 161.628C58.6177 160.844 59.1217 159.482 58.9155 159.349C57.9877 158.722 56.8765 158.204 55.7883 158.132C55.3415 158.108 54.8146 159.265 54.0814 160.193C53.1879 160.326 51.5957 158.252 50.5074 160.651C48.308 158.795 48.3424 158.855 45.9024 160.386C42.8783 162.279 39.7624 164.003 36.7383 165.908C35.4438 166.727 34.3327 167.873 33.0382 168.717C32.2822 169.211 31.3658 169.488 30.4952 169.717C27.5398 170.489 24.5614 171.224 21.5945 171.923C21.2165 172.02 20.6552 172.032 20.3917 171.803C18.5474 170.175 16.3251 169.898 14.0684 169.681C13.7248 169.645 13.4155 169.343 13.0833 169.163C12.0294 168.596 10.9641 168.029 9.92166 167.427C9.452 167.137 9.02816 166.739 8.58141 166.402C8.67305 166.185 8.76469 165.968 8.85633 165.751C10.3111 166.04 11.7889 166.281 13.2437 166.631C15.7753 167.258 18.2725 168.343 20.827 168.487C22.8889 168.608 25.1113 167.885 27.0815 167.053C30.4608 165.642 33.8745 164.135 36.9674 162.122C40.4612 159.844 43.6572 157.023 46.899 154.322C48.709 152.827 50.2669 150.983 52.0653 149.464C52.913 148.753 53.9898 148.222 55.1239 149.391C55.5821 149.874 56.4641 150.187 57.1285 150.151C62.9249 149.789 67.5184 146.269 72.2723 143.328C75.3194 141.459 78.0343 140.615 81.0126 143.303C82.1009 144.292 83.3609 145.16 84.6783 145.751C85.3656 146.064 86.3622 145.739 87.1984 145.534C88.0346 145.341 88.8136 144.81 89.6613 144.666C91.7805 144.292 92.8 142.303 94.4037 141.17C96.9812 139.361 99.6388 137.686 102.193 135.841C102.823 135.395 103.19 134.527 103.671 133.852C103.728 133.792 103.728 133.599 103.763 133.599C106.225 133.394 106.42 130.766 107.795 129.415C108.539 128.692 109.444 128.15 110.258 127.511C111.667 126.426 112.789 125.256 113.202 123.231C113.442 122.086 114.702 121.073 115.676 120.229C117.864 118.324 120.235 116.673 122.366 114.708C123.34 113.816 124.084 112.514 124.588 111.236C125.253 109.572 126.959 109.777 127.532 110.115C128.93 110.946 130.637 110.814 131.908 112.562C132.95 114.021 135.516 114.274 137.429 114.973C139.068 115.576 140.729 116.13 142.412 116.6C142.871 116.733 143.581 116.709 143.925 116.408C146.662 114.105 149.48 111.875 151.989 109.307C153.742 107.523 155.013 105.196 156.571 103.171C157.361 102.158 158.312 101.278 159.183 100.338C159.378 100.133 159.584 99.9518 159.756 99.7348C161.176 97.9988 162.849 96.4316 163.914 94.4906C164.888 92.7185 167.087 92.1157 167.408 89.789C167.522 88.9451 169.71 88.8366 170.501 89.3309C171.005 89.6564 171.703 89.8372 172.276 89.7528C175.346 89.2947 177.626 87.6069 179.733 85.1355C181.704 82.8209 184.338 81.1451 186.572 79.0595C188.13 77.6129 189.379 75.7925 190.994 74.4302C192.643 73.0318 193.537 71.0306 194.969 69.4874C197.019 67.3054 199.184 65.256 201.166 63.0016C202.506 61.4705 203.583 59.6863 204.855 58.0709C206.206 56.359 207.409 54.4301 209.735 53.6465C211.968 56.2505 214.145 59.1559 216.676 61.6514C219.013 63.966 221.694 65.907 224.294 67.9082C226.505 69.608 228.865 71.1149 231.099 72.8148C232.496 73.8877 233.951 73.6225 235.463 73.3573C236.54 73.1644 237.628 72.9474 238.728 72.8148C239.782 72.6701 240.732 72.8148 241.156 74.1047C241.236 74.3458 241.569 74.599 241.821 74.6472C244.536 75.1415 246.391 77.4079 248.808 78.3965C250.928 79.2765 253.287 79.6261 255.567 79.9275C258.179 80.2771 260.756 80.5665 263.185 81.8082C263.86 82.1578 264.914 82.0734 265.659 81.7841C267.423 81.121 268.065 82.6883 268.901 83.5563C270.94 85.6539 272.635 88.1615 274.777 90.1145C278.099 93.1645 281.662 95.9011 285.144 98.7462C287.848 100.964 290.597 103.122 293.289 105.365C294.205 106.124 295.019 106.197 296.05 105.594C298.215 104.352 300.437 103.231 302.625 102.025C303.129 101.748 303.61 101.35 304.022 100.928C305.489 99.4816 307.39 99.5539 309.177 99.2043C309.521 99.1441 309.842 98.9873 310.243 98.8427C310.758 99.6263 311.193 100.518 311.823 101.206C312.511 101.929 313.496 102.363 314.172 103.098C315.214 104.268 316.016 105.69 317.081 106.823C319.269 109.162 321.537 111.417 323.828 113.635C328.158 117.83 333.611 120.169 338.537 123.388C339.499 124.015 340.942 124.195 342.088 124.003C346.842 123.231 351.241 121.338 355.319 118.602C356.098 118.083 357.06 117.854 357.782 117.264C358.847 116.383 359.74 115.274 360.76 114.346C361.172 113.972 361.745 113.779 362.249 113.538C363.475 112.984 364.666 112.14 365.926 111.995C367.919 111.754 369.97 111.839 371.963 112.08C374.518 112.381 377.107 112.743 379.569 113.502C382.662 114.467 385.606 115.998 388.699 116.998C391.895 118.035 395.16 118.855 398.448 119.518C399.925 119.819 400.91 120.229 401.701 121.76C402.388 123.11 402.892 124.798 404.599 125.449C405.114 125.654 405.298 126.667 405.745 127.233C406.661 128.427 407.612 129.584 408.597 130.693C409.376 131.561 410.292 132.297 411.06 133.177C412.251 134.515 413.156 136.142 415.046 136.661C415.573 136.818 415.894 137.649 416.398 138.047C418.196 139.482 420.018 140.844 421.828 142.231C422.022 142.375 422.24 142.508 422.377 142.701C424.485 145.498 427.612 146.438 430.476 147.957C433.947 149.789 437.624 150.706 441.29 151.803C443.008 152.333 444.795 152.622 446.502 153.201C447.224 153.442 447.808 154.117 448.461 154.587C448.392 154.792 448.323 154.997 448.266 155.202C447.716 155.238 447.132 155.431 446.617 155.311C440.351 153.78 434.153 152.044 428.197 149.343C425.447 148.09 422.481 147.378 419.663 146.257C417.383 145.353 415.218 144.099 412.95 143.171C408.963 141.543 406.054 138.361 402.904 135.528C401.105 133.924 399.421 132.164 397.543 130.681C396.26 129.657 394.633 129.15 393.327 128.15C390.773 126.185 388.264 127.378 385.698 127.921C385.114 128.041 384.461 128.017 383.865 127.909C382.685 127.679 381.494 127.438 380.371 127.028C379.73 126.799 379.214 126.197 378.378 125.546C381.288 124.991 383.739 124.521 386.19 124.051C386.225 123.894 386.248 123.737 386.282 123.581C385.709 123.243 385.171 122.737 384.552 122.58C381.127 121.664 377.691 120.699 374.22 120.024C372.169 119.614 370.119 119.783 368.16 121.049C364.54 123.364 360.817 125.509 357.048 127.571C355.021 128.68 352.821 129.452 350.473 130.476C351.493 130.898 352.352 131.513 353.245 131.598C356.854 131.911 359.695 134.141 362.799 135.721C363.647 136.142 364.391 136.781 365.25 137.143C368.962 138.771 370.119 142.725 372.33 145.727C375.056 149.428 377.301 153.514 380.887 156.492C383.418 158.59 385.606 161.134 387.92 163.509C389.982 165.63 392.708 166.197 395.263 167.161C395.95 167.427 397.451 167.041 397.05 168.777Z" fill="#545454"/>
</g>
<mask id="mask1_42_278" style="mask-type:luminance" maskUnits="userSpaceOnUse" x="104" y="70" width="36" height="57">
<path d="M104.072 70.8497H139.262V126.365H104.072V70.8497Z" fill="white"/>
</mask>
<g mask="url(#mask1_42_278)">
<path d="M122.377 98.8306C116.948 99.2887 112.457 94.5268 112.892 88.7642C113.225 84.2434 116.684 80.5785 120.945 80.2169C126.375 79.7708 130.866 84.5327 130.43 90.2832C130.098 94.8041 126.639 98.481 122.377 98.8306ZM121.392 70.8618C111.3 71.0185 103.579 80.3133 104.095 91.0066C104.862 106.811 117.601 122.279 120.888 126.016C121.312 126.486 122.011 126.486 122.435 126.016C125.825 122.146 139.262 105.835 139.262 89.5237C139.262 79.1198 131.232 70.705 121.392 70.8618Z" fill="#E60012"/>
</g>
<mask id="mask2_42_278" style="mask-type:luminance" maskUnits="userSpaceOnUse" x="228" y="0" width="58" height="91">
<path d="M228.521 0.601807H285.705V90.8736H228.521V0.601807Z" fill="white"/>
</mask>
<g mask="url(#mask2_42_278)">
<path d="M258.259 46.0995C249.45 46.8348 242.153 39.0831 242.852 29.728C243.39 22.3742 249.015 16.4067 255.945 15.828C264.754 15.0926 272.051 22.8443 271.364 32.1994C270.814 39.5533 265.201 45.5208 258.259 46.0995ZM256.667 0.601893C240.263 0.867116 227.719 15.9727 228.556 33.3688C229.804 59.0712 250.504 84.207 255.853 90.295C256.529 91.0666 257.686 91.0666 258.362 90.283C263.884 84.002 285.706 57.4799 285.706 30.9577C285.706 14.0438 272.658 0.360786 256.667 0.601893Z" fill="#FDAF1A"/>
</g>
<mask id="mask3_42_278" style="mask-type:luminance" maskUnits="userSpaceOnUse" x="366" y="62" width="36" height="57">
<path d="M366.751 62.4952H401.941V118.011H366.751V62.4952Z" fill="white"/>
</mask>
<g mask="url(#mask3_42_278)">
<path d="M385.057 90.4761C379.627 90.9221 375.136 86.1602 375.56 80.4097C375.904 75.8768 379.363 72.212 383.625 71.8623C389.043 71.4042 393.533 76.1662 393.11 81.9167C392.777 86.4495 389.318 90.1144 385.057 90.4761ZM384.071 62.4952C373.979 62.6519 366.259 71.9467 366.774 82.64C367.542 98.4568 380.28 113.912 383.567 117.649C383.98 118.131 384.69 118.131 385.114 117.649C388.505 113.791 401.942 97.4803 401.942 81.1692C401.942 70.7653 393.911 62.3385 384.071 62.4952Z" fill="#004AAD"/>
</g>
<path d="M13.5442 261.715C16.9922 265.585 21.4024 268.213 26.8551 269.648C30.4979 270.709 33.9917 270.986 37.3137 270.419C40.5441 269.937 43.7286 268.551 46.8559 266.26C47.6348 267.02 48.2305 267.598 48.6314 267.876C49.6395 268.84 50.4528 269.503 51.1745 269.937C52.1367 270.516 52.8584 270.841 53.3166 270.938C54.6798 271.227 56.547 271.082 58.9068 270.467C61.2665 269.889 62.4579 268.888 62.4579 267.454C62.4579 267.068 62.2746 266.586 61.9997 266.115C61.6331 265.633 61.0489 264.91 60.2699 263.861C59.4566 262.909 58.4944 261.751 57.4978 260.51C56.8219 259.75 55.9971 258.834 55.0922 257.689C57.4519 254.337 59.2275 250.66 60.3616 246.646C61.5415 242.101 61.8164 237.556 61.1749 233.059C60.499 228.562 59.2275 224.343 57.3603 220.425C56.0888 217.797 54.4965 215.121 52.5835 212.432C50.6819 209.756 48.6314 207.465 46.3633 205.645C44.267 204.017 41.9989 202.679 39.5475 201.618C37.0846 200.57 34.5874 199.714 32.0443 199.135C30.4062 198.749 28.6765 198.52 26.9009 198.375C25.1368 198.231 23.4071 198.327 21.7232 198.617C19.0885 199.183 16.408 200.425 13.6816 202.293C10.9553 204.21 8.81319 206.26 7.22092 208.562C3.86455 213.3 1.85988 218.749 1.21839 224.922C0.405074 232.095 1.21839 238.942 3.63544 245.488C3.91036 246.453 4.3113 247.55 4.86115 248.743C5.85775 251.227 7.08345 253.578 8.62991 255.687C10.1305 257.785 11.7686 259.798 13.5442 261.715ZM35.584 252.903C35.8589 253.337 36.1338 253.771 36.4546 254.205C36.7295 254.627 37.0388 255.012 37.3595 255.398C33.7741 256.929 30.7728 257.218 28.3558 256.206C24.6328 254.771 22.4563 252.384 21.8607 249.129C21.265 245.874 21.6774 242.619 23.0864 239.316C24.4954 236.025 26.6375 233.107 29.5471 230.612C32.4109 228.128 35.4923 226.839 38.7685 226.79C41.5865 226.79 44.0379 227.646 46.18 229.322C48.2649 230.998 49.4562 233.819 49.6853 237.833C49.8572 241.426 48.8606 244.825 46.5924 248.032C45.4927 246.778 44.4961 245.681 43.5912 244.729C41.6781 242.764 39.3184 242.812 36.5004 244.922C33.6366 247.019 33.3159 249.66 35.584 252.903Z" fill="#FD571A"/>
<path d="M84.1221 251.371C85.1187 249.515 86.3902 248.213 88.0283 247.55C89.6206 246.875 91.1212 246.646 92.576 246.875C94.0308 247.116 95.2107 247.743 96.173 248.743C97.1238 249.792 97.4903 251.046 97.2612 252.48C96.9863 253.819 96.3448 255.108 95.394 256.254C94.3974 257.447 92.9884 258.363 91.0754 258.93C88.0283 259.895 85.8518 259.364 84.5803 257.254C83.263 255.157 83.1255 253.192 84.1221 251.371ZM93.4352 233.155C95.7148 234.301 97.0321 235.349 97.3987 236.302C97.708 237.266 97.7996 237.881 97.708 238.074C93.7101 237.122 89.9872 236.881 86.4819 237.266C82.9422 237.7 79.9868 238.846 77.5354 240.702C75.0725 242.619 73.4344 244.054 72.7127 245.114C71.9796 246.163 71.1663 247.309 70.353 248.55C68.7149 251.142 67.8901 254.011 67.8901 257.17C67.8901 259.412 68.3025 261.377 69.1158 263.053C69.9864 264.813 71.2579 266.296 72.9418 267.453C74.5799 268.599 76.4357 269.551 78.4403 270.226C81.0292 271.178 83.7555 271.612 86.6652 271.516C89.4831 271.42 92.1178 270.793 94.6265 269.647C95.7148 269.177 97.0779 268.261 98.716 266.971C98.8993 267.646 99.1628 268.309 99.5293 268.984C99.9876 269.937 100.709 270.708 101.671 271.227C102.164 271.516 103.035 271.902 104.26 272.276C105.44 272.71 106.758 272.758 108.212 272.468C109.667 272.191 110.71 271.709 111.443 270.986C112.119 270.323 112.485 269.503 112.485 268.599C112.485 268.116 112.439 267.598 112.256 267.068C112.073 266.585 111.947 266.115 111.809 265.633C110.446 262.764 109.759 258.46 109.805 252.673C109.805 247.405 109.942 242.86 110.217 239.038C110.446 235.205 109.621 231.853 107.8 229.032C105.99 226.26 104.077 224.391 102.072 223.487C100.079 222.583 98.0745 221.908 95.9897 221.425C93.3092 220.859 90.5714 220.569 87.7992 220.618C85.7144 220.714 83.6181 220.907 81.5332 221.232C79.4369 221.618 77.4437 222.342 75.5307 223.39C74.809 223.776 74.0759 224.246 73.3886 224.777C72.392 225.548 71.2579 226.597 69.9864 227.984C68.7149 229.418 68.5316 231.094 69.3907 233.059C70.2155 235.012 71.6703 236.205 73.6635 236.591C75.6682 237.025 77.4437 236.639 78.9902 235.398C80.5252 234.156 82.3924 233.336 84.6261 232.914C87.5358 232.384 90.4454 232.48 93.4352 233.155Z" fill="#FD571A"/>
<path d="M144.927 258.786C145.66 256.784 146.382 256.736 147.069 258.737C147.745 260.751 148.753 262.716 150.116 264.681C150.655 265.44 151.205 266.164 151.755 266.827C152.293 267.55 152.843 268.165 153.473 268.744C153.748 269.033 154.069 269.226 154.435 269.407C154.802 269.744 155.569 270.082 156.657 270.371C157.574 270.564 158.616 270.66 159.796 270.757C160.976 270.841 162.018 270.793 162.935 270.516C163.748 270.323 164.481 269.792 165.203 269.033C166.119 268.02 166.933 266.73 167.7 265.103C168.662 263.246 169.613 260.751 170.61 257.64C171.618 254.578 172.523 251.323 173.348 247.984C174.161 244.632 174.802 241.329 175.295 238.122C175.799 234.916 176.028 232.239 175.937 230.142C175.937 229.081 175.799 227.984 175.57 226.79C175.341 225.597 174.802 224.632 173.978 223.969C173.027 223.198 170.839 222.535 167.437 222.004C164.023 221.474 162.11 222.294 161.663 224.439C161.526 225.018 161.48 225.645 161.572 226.212C161.618 226.839 161.618 227.453 161.618 228.032C161.755 231.95 161.48 236.206 160.747 240.895C160.025 245.585 159.292 248.695 158.662 250.13C158.021 251.613 157.207 251.661 156.291 250.274C155.386 248.936 154.343 246.019 153.209 241.522C152.293 235.494 151.617 231.902 151.251 230.708C150.884 229.515 149.154 228.936 146.073 228.936C142.98 228.984 141.25 229.611 140.884 230.805C140.528 231.998 139.933 235.639 139.108 241.667C138.478 245.971 137.573 248.84 136.382 250.323C135.202 251.854 134.251 251.854 133.61 250.371C132.934 248.936 132.201 245.874 131.433 241.185C130.654 236.543 130.345 232.288 130.528 228.37C130.482 227.791 130.482 227.176 130.528 226.549C130.562 225.971 130.528 225.356 130.391 224.729C129.887 222.631 128.019 221.86 124.755 222.438C121.479 223.005 119.428 223.728 118.523 224.536C117.698 225.211 117.16 226.163 116.977 227.357C116.748 228.611 116.656 229.708 116.656 230.757C116.61 232.866 116.839 235.543 117.389 238.701C117.882 241.908 118.569 245.211 119.382 248.551C120.207 251.902 121.066 255.109 122.063 258.171C123.071 261.233 124.022 263.716 124.972 265.537C125.705 267.164 126.565 268.454 127.481 269.455C128.157 270.226 128.89 270.66 129.612 270.841C130.528 271.082 131.525 271.131 132.659 271.034C133.747 270.938 134.755 270.793 135.66 270.564C136.702 270.275 137.436 269.937 137.882 269.599C138.157 269.407 138.432 269.178 138.753 268.888C139.291 268.31 139.841 267.695 140.391 266.923C140.884 266.212 141.433 265.489 141.972 264.765C143.163 262.86 144.16 260.847 144.927 258.786Z" fill="#FD571A"/>
<path d="M196.83 251.371C197.827 249.515 199.098 248.213 200.736 247.55C202.328 246.875 203.829 246.646 205.284 246.875C206.739 247.116 207.919 247.743 208.881 248.743C209.832 249.792 210.198 251.046 209.969 252.48C209.694 253.819 209.053 255.108 208.102 256.254C207.105 257.447 205.696 258.363 203.783 258.93C200.736 259.895 198.56 259.364 197.288 257.254C195.971 255.157 195.833 253.192 196.83 251.371ZM206.143 233.155C208.423 234.301 209.74 235.349 210.107 236.302C210.416 237.266 210.507 237.881 210.416 238.074C206.418 237.122 202.695 236.881 199.19 237.266C195.65 237.7 192.695 238.846 190.243 240.702C187.78 242.619 186.142 244.054 185.421 245.114C184.687 246.163 183.874 247.309 183.061 248.55C181.423 251.142 180.598 254.011 180.598 257.17C180.598 259.412 181.01 261.377 181.824 263.053C182.694 264.813 183.966 266.296 185.65 267.453C187.288 268.599 189.144 269.551 191.148 270.226C193.737 271.178 196.463 271.612 199.373 271.516C202.191 271.42 204.826 270.793 207.334 269.647C208.423 269.177 209.786 268.261 211.424 266.971C211.607 267.646 211.871 268.309 212.237 268.984C212.695 269.937 213.417 270.708 214.379 271.227C214.872 271.516 215.742 271.902 216.968 272.276C218.148 272.71 219.465 272.758 220.92 272.468C222.375 272.191 223.417 271.709 224.151 270.986C224.826 270.323 225.193 269.503 225.193 268.599C225.193 268.116 225.147 267.598 224.964 267.068C224.781 266.585 224.655 266.115 224.517 265.633C223.154 262.764 222.467 258.46 222.513 252.673C222.513 247.405 222.65 242.86 222.925 239.038C223.154 235.205 222.329 231.853 220.508 229.032C218.698 226.26 216.785 224.391 214.78 223.487C212.787 222.583 210.782 221.908 208.698 221.425C206.017 220.859 203.279 220.569 200.507 220.618C198.422 220.714 196.326 220.907 194.241 221.232C192.145 221.618 190.152 222.342 188.239 223.39C187.517 223.776 186.784 224.246 186.096 224.777C185.1 225.548 183.966 226.597 182.694 227.984C181.423 229.418 181.239 231.094 182.099 233.059C182.923 235.012 184.378 236.205 186.371 236.591C188.376 237.025 190.152 236.639 191.698 235.398C193.233 234.156 195.1 233.336 197.334 232.914C200.244 232.384 203.153 232.48 206.143 233.155Z" fill="#FD571A"/>
<path d="M253.821 243.15C253.775 240.666 254.909 239.364 257.28 239.22C259.64 239.087 260.957 238.991 261.278 238.894C261.782 238.798 262.091 238.749 262.183 238.749C262.458 238.701 262.779 238.605 263.099 238.508C263.317 238.412 263.5 238.364 263.683 238.267L264.096 237.833L264.508 237.363C264.68 237.218 264.772 237.074 264.863 236.929C264.955 236.736 265.047 236.543 265.092 236.399C265.23 235.832 265.367 234.723 265.551 233.192C265.734 231.673 265.688 230.371 265.459 229.37C265.276 228.418 264.909 227.743 264.417 227.405C264.05 227.212 260.82 227.08 254.68 227.031C254.726 223.005 255.917 220.232 258.277 218.701C260.591 217.218 263.053 216.362 265.688 216.073C268.323 215.832 269.457 213.77 269.09 209.852C268.735 205.982 266.914 203.825 263.683 203.391C260.453 202.969 257.234 203.246 254.004 204.259C250.773 205.259 248.185 206.549 246.226 208.128C244.278 209.708 242.594 211.576 241.14 213.722C239.043 216.603 237.818 221.185 237.417 227.502C234.415 227.743 232.732 227.887 232.457 227.936C232.044 228.032 231.735 228.128 231.506 228.177C231.231 228.273 231.048 228.37 230.956 228.466C230.635 228.743 230.498 228.888 230.498 228.84C230.326 229.033 230.188 229.177 230.143 229.274C229.914 229.563 229.776 229.708 229.776 229.756C229.684 229.901 229.639 230.094 229.547 230.274C229.364 230.949 229.226 232.191 229.135 233.963C229.043 235.736 229.043 236.833 229.18 237.315C229.364 238.364 229.73 238.991 230.234 239.268C230.498 239.461 231.002 239.605 231.781 239.798C232.502 239.991 233.236 240.039 234.049 240.039C235 240.232 235.824 240.232 236.546 240.136C237.233 240.039 237.726 242.957 238.001 248.84C238.276 254.723 238.322 258.508 238.23 260.232C238.184 261.715 238.23 262.668 238.322 263.053C238.322 266.971 239.731 269.31 242.64 270.082C245.504 270.841 248.093 270.889 250.373 270.323C252.641 269.744 253.958 268.502 254.37 266.586C254.645 266.164 254.554 261.667 254.187 253.095C254.004 248.936 253.866 245.633 253.821 243.15Z" fill="#FD571A"/>
<path d="M276.95 224.114C274.041 229.853 272.586 236.447 272.586 243.958C272.586 244.006 272.586 244.102 272.632 244.151V244.874C272.632 246.598 272.677 248.31 272.815 250.082C273.491 260.317 273.903 265.73 273.995 266.393C274.041 266.875 274.132 267.261 274.27 267.55C274.361 267.924 274.453 268.165 274.59 268.262C274.854 268.696 275.037 268.888 275.037 268.84C275.22 269.13 275.404 269.262 275.541 269.359C275.816 269.648 275.999 269.793 276.137 269.841L276.675 270.13C277.454 270.42 278.405 270.612 279.493 270.757C280.948 271.034 282.265 271.179 283.537 271.179C284.224 271.227 284.9 271.227 285.587 271.227C286.217 271.227 286.859 271.131 287.409 270.986C288.589 270.757 289.402 270.323 289.769 269.744C289.952 269.407 290.181 268.792 290.41 267.828C290.582 266.923 290.719 265.971 290.811 264.958C289.906 258.931 289.448 253.144 289.448 247.695C289.448 245.296 289.539 243.053 289.769 240.896C290.227 236.351 290.49 232.867 290.582 230.468C290.582 230.178 290.536 229.997 290.536 229.853C290.41 229.37 290.364 228.985 290.364 228.695L290.089 227.55C289.998 227.261 289.906 227.032 289.814 226.839C289.539 226.549 289.402 226.357 289.31 226.26L288.772 225.73C288.543 225.549 288.36 225.356 288.268 225.26C287.993 225.115 287.764 225.018 287.626 224.97C286.905 224.777 286 224.584 284.854 224.343C284.041 224.247 282.678 224.114 280.811 223.921C280.41 223.921 279.997 223.873 279.585 223.873C278.634 223.873 277.763 223.97 276.95 224.114ZM288.451 206.694C286.813 205.115 284.9 204.307 282.632 204.307C280.364 204.307 278.451 205.115 276.859 206.694C275.22 208.273 274.453 210.19 274.453 212.432C274.453 214.687 275.22 216.604 276.859 218.171C278.451 219.798 280.364 220.57 282.632 220.57C284.9 220.57 286.813 219.798 288.451 218.171C290.043 216.604 290.857 214.687 290.857 212.432C290.857 210.19 290.043 208.273 288.451 206.694Z" fill="#FD571A"/>
<path d="M312.588 210.335C312.851 207.984 312.588 206.405 311.672 205.645C310.767 204.874 309.541 204.355 307.994 204.163C306.906 204.066 305.669 204.018 304.306 204.114C302.943 204.211 301.809 204.5 300.812 204.97C299.941 205.404 299.22 206.212 298.67 207.369C297.948 208.756 297.353 210.66 296.906 213.156C296.356 215.832 295.944 219.377 295.714 223.68C295.451 227.984 295.359 232.529 295.451 237.219C295.497 241.908 295.714 246.502 296.081 250.902C296.448 255.302 296.94 258.931 297.627 261.752C297.948 263.247 298.395 264.766 299.036 266.297C299.632 267.876 300.537 269.082 301.763 269.841C302.404 270.323 303.493 270.709 305.039 270.986C306.585 271.324 308.178 271.42 309.77 271.324C311.351 271.227 312.76 270.89 313.997 270.227C315.177 269.6 315.807 268.551 315.807 267.068C315.715 266.261 315.578 265.441 315.36 264.585C315.085 263.765 314.902 262.957 314.764 262.186C312.851 254.82 311.809 246.357 311.534 236.737C311.259 227.177 311.58 218.364 312.588 210.335Z" fill="#FD571A"/>
<path d="M334.166 263.572C334.166 261.667 333.444 259.847 332.035 258.219C330.397 256.447 328.301 255.543 325.712 255.543C323.261 255.543 321.256 256.35 319.755 257.881C318.209 259.413 317.441 261.329 317.441 263.62C317.441 265.73 318.129 267.55 319.538 268.985C321.073 270.709 323.169 271.516 325.804 271.516C328.037 271.516 329.939 270.841 331.485 269.503C333.261 267.972 334.166 266.019 334.166 263.572Z" fill="#FD571A"/>
<path d="M380.53 248.936C380.209 246.598 380.346 244.681 380.988 243.246C381.572 241.812 382.844 241.088 384.802 241.04C387.162 240.799 389.259 242.101 391.08 244.874C391.618 245.923 392.122 247.212 392.535 248.695C393.027 250.901 393.348 253.288 393.531 255.868C393.715 258.46 393.577 260.847 393.165 263.15C393.027 263.765 392.89 264.44 392.81 265.103C392.718 265.826 392.81 266.441 393.073 267.02C393.165 267.454 393.394 267.779 393.76 268.069C394.482 268.84 395.891 269.551 397.942 270.226C399.946 270.89 401.665 271.131 403.119 270.841C403.944 270.709 404.574 270.178 404.987 269.31C406.121 266.875 406.579 263.379 406.304 258.834C406.029 254.337 405.708 250.805 405.261 248.213C404.62 244.584 403.486 240.992 401.894 237.411C400.256 233.819 397.942 230.95 394.849 228.743C391.893 226.742 389.075 225.645 386.395 225.549C383.714 225.549 381.263 226.212 379.075 227.55C376.853 228.888 375.123 230.612 373.943 232.625C373.301 231.757 371.984 230.612 369.899 229.129C366.944 227.128 364.08 226.115 361.354 226.212C358.753 226.019 356.531 227.032 354.664 229.226L354.618 228.985C355.076 226.694 354.893 225.115 354.034 224.295C353.163 223.535 351.938 223.005 350.299 222.812C349.165 222.716 347.894 222.667 346.485 222.764C345.076 222.86 343.85 223.198 342.762 223.68C341.845 224.114 341.032 224.874 340.345 226.019C339.44 227.357 338.707 229.467 338.168 232.288C337.619 235.157 337.252 237.882 337.126 240.473C336.988 243.053 336.943 246.598 336.988 250.998C337.034 255.398 337.298 259.027 337.802 261.896C338.031 263.427 338.397 264.958 338.89 266.489C339.394 268.069 340.253 269.262 341.433 270.034C342.075 270.516 343.163 270.89 344.801 271.179C346.393 271.516 348.031 271.613 349.715 271.516C351.353 271.42 352.842 271.082 354.171 270.419C355.489 269.792 356.21 268.744 356.302 267.213C356.302 266.441 356.21 265.633 356.027 264.765C355.844 263.909 355.706 263.102 355.58 262.33C354.481 256.495 354.171 252.095 354.618 249.033C355.706 244.247 357.482 241.763 359.853 241.474C362.213 241.185 364.298 242.475 366.119 245.247C366.715 246.308 367.207 247.598 367.574 249.081C368.078 251.275 368.261 254.386 368.17 258.412C368.078 262.427 367.986 264.814 367.895 265.489C367.803 266.212 367.849 266.827 368.124 267.405C368.215 267.827 368.444 268.165 368.8 268.454C369.533 269.226 370.942 269.937 372.981 270.612C374.985 271.275 376.761 271.516 378.216 271.227C379.029 271.082 379.579 270.082 379.9 268.261C380.209 266.441 380.484 263.331 380.667 258.979C380.85 254.627 380.805 251.275 380.53 248.936Z" fill="#FD571A"/>
<path d="M426.608 251.371C427.605 249.515 428.876 248.213 430.515 247.55C432.107 246.875 433.607 246.646 435.062 246.875C436.517 247.116 437.697 247.743 438.659 248.743C439.61 249.792 439.977 251.046 439.747 252.48C439.473 253.819 438.831 255.108 437.88 256.254C436.884 257.447 435.475 258.363 433.562 258.93C430.515 259.895 428.338 259.364 427.067 257.254C425.749 255.157 425.612 253.192 426.608 251.371ZM435.921 233.155C438.201 234.301 439.518 235.349 439.885 236.302C440.194 237.266 440.286 237.881 440.194 238.074C436.196 237.122 432.473 236.881 428.968 237.266C425.428 237.7 422.473 238.846 420.022 240.702C417.559 242.619 415.921 244.054 415.199 245.114C414.466 246.163 413.653 247.309 412.839 248.55C411.201 251.142 410.376 254.011 410.376 257.17C410.376 259.412 410.789 261.377 411.602 263.053C412.473 264.813 413.744 266.296 415.428 267.453C417.066 268.599 418.922 269.551 420.927 270.226C423.515 271.178 426.242 271.612 429.151 271.516C431.969 271.42 434.604 270.793 437.113 269.647C438.201 269.177 439.564 268.261 441.202 266.971C441.386 267.646 441.649 268.309 442.016 268.984C442.474 269.937 443.195 270.708 444.158 271.227C444.65 271.516 445.521 271.902 446.747 272.276C447.926 272.71 449.244 272.758 450.699 272.468C452.153 272.191 453.196 271.709 453.929 270.986C454.605 270.323 454.971 269.503 454.971 268.599C454.971 268.116 454.926 267.598 454.742 267.068C454.559 266.585 454.433 266.115 454.296 265.633C452.932 262.764 452.245 258.46 452.291 252.673C452.291 247.405 452.428 242.86 452.703 239.038C452.932 235.205 452.108 231.853 450.286 229.032C448.476 226.26 446.563 224.391 444.559 223.487C442.565 222.583 440.561 221.908 438.476 221.425C435.795 220.859 433.058 220.569 430.285 220.618C428.201 220.714 426.104 220.907 424.019 221.232C421.923 221.618 419.93 222.342 418.017 223.39C417.295 223.776 416.562 224.246 415.875 224.777C414.878 225.548 413.744 226.597 412.473 227.984C411.201 229.418 411.018 231.094 411.877 233.059C412.702 235.012 414.157 236.205 416.15 236.591C418.154 237.025 419.93 236.639 421.476 235.398C423.011 234.156 424.879 233.336 427.112 232.914C430.022 232.384 432.932 232.48 435.921 233.155Z" fill="#FD571A"/>
</svg>
